<mxfile host="Electron" agent="Mozilla/5.0 (Windows NT 10.0; Win64; x64) AppleWebKit/537.36 (KHTML, like Gecko) draw.io/26.0.9 Chrome/128.0.6613.186 Electron/32.2.5 Safari/537.36" version="26.0.9">
  <diagram id="R2lEEEUBdFMjLlhIrx00" name="Page-1">
    <mxGraphModel dx="1690" dy="503" grid="1" gridSize="10" guides="1" tooltips="1" connect="1" arrows="1" fold="1" page="1" pageScale="1" pageWidth="850" pageHeight="1100" math="0" shadow="0" extFonts="Permanent Marker^https://fonts.googleapis.com/css?family=Permanent+Marker">
      <root>
        <mxCell id="0" />
        <mxCell id="1" parent="0" />
        <mxCell id="LvFEWfGlib69xMwCt4WK-14" value="Название" style="ellipse;whiteSpace=wrap;html=1;align=center;" parent="1" vertex="1">
          <mxGeometry x="-340" y="822.5" width="70" height="40" as="geometry" />
        </mxCell>
        <mxCell id="LvFEWfGlib69xMwCt4WK-15" value="ID" style="ellipse;whiteSpace=wrap;html=1;align=center;" parent="1" vertex="1">
          <mxGeometry x="-370" y="776.25" width="70" height="40" as="geometry" />
        </mxCell>
        <mxCell id="LvFEWfGlib69xMwCt4WK-16" value="Количество в кг&lt;div&gt;на складе&lt;/div&gt;" style="ellipse;whiteSpace=wrap;html=1;align=center;" parent="1" vertex="1">
          <mxGeometry x="-140" y="902.5000000000001" width="110" height="60.63" as="geometry" />
        </mxCell>
        <mxCell id="LvFEWfGlib69xMwCt4WK-24" value="Продукт" style="whiteSpace=wrap;html=1;align=center;" parent="1" vertex="1">
          <mxGeometry x="-203.5" y="790" width="120" height="60" as="geometry" />
        </mxCell>
        <mxCell id="LvFEWfGlib69xMwCt4WK-25" value="" style="endArrow=none;html=1;rounded=0;" parent="1" source="LvFEWfGlib69xMwCt4WK-15" target="LvFEWfGlib69xMwCt4WK-24" edge="1">
          <mxGeometry relative="1" as="geometry">
            <mxPoint x="-625.0972608608572" y="584.9393608675334" as="sourcePoint" />
            <mxPoint x="-302.5" y="432.5" as="targetPoint" />
          </mxGeometry>
        </mxCell>
        <mxCell id="LvFEWfGlib69xMwCt4WK-26" value="" style="endArrow=none;html=1;rounded=0;" parent="1" source="LvFEWfGlib69xMwCt4WK-14" target="LvFEWfGlib69xMwCt4WK-24" edge="1">
          <mxGeometry relative="1" as="geometry">
            <mxPoint x="-462.5" y="432.5" as="sourcePoint" />
            <mxPoint x="-302.5" y="432.5" as="targetPoint" />
          </mxGeometry>
        </mxCell>
        <mxCell id="LvFEWfGlib69xMwCt4WK-27" value="" style="endArrow=none;html=1;rounded=0;" parent="1" source="LvFEWfGlib69xMwCt4WK-16" target="LvFEWfGlib69xMwCt4WK-24" edge="1">
          <mxGeometry relative="1" as="geometry">
            <mxPoint x="-462.5" y="432.5" as="sourcePoint" />
            <mxPoint x="-302.5" y="432.5" as="targetPoint" />
          </mxGeometry>
        </mxCell>
        <mxCell id="LvFEWfGlib69xMwCt4WK-28" value="Цена за кг&lt;div&gt;в руб&lt;/div&gt;" style="ellipse;whiteSpace=wrap;html=1;align=center;" parent="1" vertex="1">
          <mxGeometry x="-230" y="902.5" width="80" height="40" as="geometry" />
        </mxCell>
        <mxCell id="LvFEWfGlib69xMwCt4WK-29" value="" style="endArrow=none;html=1;rounded=0;" parent="1" source="LvFEWfGlib69xMwCt4WK-24" target="LvFEWfGlib69xMwCt4WK-28" edge="1">
          <mxGeometry relative="1" as="geometry">
            <mxPoint x="-462.5" y="432.5" as="sourcePoint" />
            <mxPoint x="-476.3675787142763" y="643.1525555324879" as="targetPoint" />
          </mxGeometry>
        </mxCell>
        <mxCell id="LvFEWfGlib69xMwCt4WK-31" value="Содерж&lt;span style=&quot;background-color: transparent; color: light-dark(rgb(0, 0, 0), rgb(255, 255, 255));&quot;&gt;ит&lt;/span&gt;" style="shape=rhombus;perimeter=rhombusPerimeter;whiteSpace=wrap;html=1;align=center;" parent="1" vertex="1">
          <mxGeometry x="-212.5" y="676.88" width="140" height="92.5" as="geometry" />
        </mxCell>
        <mxCell id="LvFEWfGlib69xMwCt4WK-32" value="Блюдо" style="whiteSpace=wrap;html=1;align=center;" parent="1" vertex="1">
          <mxGeometry x="-203.5" y="580" width="120" height="60" as="geometry" />
        </mxCell>
        <mxCell id="LvFEWfGlib69xMwCt4WK-35" value="Поставщик" style="ellipse;whiteSpace=wrap;html=1;align=center;" parent="1" vertex="1">
          <mxGeometry x="-300" y="862.5" width="80" height="60" as="geometry" />
        </mxCell>
        <mxCell id="LvFEWfGlib69xMwCt4WK-37" value="" style="endArrow=none;html=1;rounded=0;" parent="1" source="LvFEWfGlib69xMwCt4WK-24" target="LvFEWfGlib69xMwCt4WK-35" edge="1">
          <mxGeometry relative="1" as="geometry">
            <mxPoint x="-282.5" y="562.5" as="sourcePoint" />
            <mxPoint x="-122.5" y="562.5" as="targetPoint" />
          </mxGeometry>
        </mxCell>
        <mxCell id="LvFEWfGlib69xMwCt4WK-42" value="ID" style="ellipse;whiteSpace=wrap;html=1;align=center;" parent="1" vertex="1">
          <mxGeometry x="1.5" y="627.5" width="70" height="40" as="geometry" />
        </mxCell>
        <mxCell id="LvFEWfGlib69xMwCt4WK-44" value="" style="endArrow=none;html=1;rounded=0;" parent="1" source="LvFEWfGlib69xMwCt4WK-42" target="LvFEWfGlib69xMwCt4WK-32" edge="1">
          <mxGeometry relative="1" as="geometry">
            <mxPoint x="-282.5" y="562.5" as="sourcePoint" />
            <mxPoint x="-122.5" y="562.5" as="targetPoint" />
          </mxGeometry>
        </mxCell>
        <mxCell id="LvFEWfGlib69xMwCt4WK-46" value="Название" style="ellipse;whiteSpace=wrap;html=1;align=center;" parent="1" vertex="1">
          <mxGeometry x="26.5" y="676.88" width="70" height="30" as="geometry" />
        </mxCell>
        <mxCell id="LvFEWfGlib69xMwCt4WK-47" value="" style="endArrow=none;html=1;rounded=0;" parent="1" source="LvFEWfGlib69xMwCt4WK-46" target="LvFEWfGlib69xMwCt4WK-32" edge="1">
          <mxGeometry relative="1" as="geometry">
            <mxPoint x="-282.5" y="562.5" as="sourcePoint" />
            <mxPoint x="-122.5" y="562.5" as="targetPoint" />
          </mxGeometry>
        </mxCell>
        <mxCell id="LvFEWfGlib69xMwCt4WK-48" value="Масса порции в г" style="ellipse;whiteSpace=wrap;html=1;align=center;" parent="1" vertex="1">
          <mxGeometry x="-8.5" y="710" width="75" height="40" as="geometry" />
        </mxCell>
        <mxCell id="LvFEWfGlib69xMwCt4WK-49" value="" style="endArrow=none;html=1;rounded=0;" parent="1" source="LvFEWfGlib69xMwCt4WK-48" target="LvFEWfGlib69xMwCt4WK-32" edge="1">
          <mxGeometry relative="1" as="geometry">
            <mxPoint x="-282.5" y="562.5" as="sourcePoint" />
            <mxPoint x="-122.5" y="562.5" as="targetPoint" />
          </mxGeometry>
        </mxCell>
        <mxCell id="LvFEWfGlib69xMwCt4WK-50" value="Цена за порцию&lt;div&gt;в руб&lt;/div&gt;" style="ellipse;whiteSpace=wrap;html=1;align=center;" parent="1" vertex="1">
          <mxGeometry x="-72.5" y="740" width="90" height="59.37" as="geometry" />
        </mxCell>
        <mxCell id="LvFEWfGlib69xMwCt4WK-51" value="" style="endArrow=none;html=1;rounded=0;" parent="1" source="LvFEWfGlib69xMwCt4WK-50" target="LvFEWfGlib69xMwCt4WK-32" edge="1">
          <mxGeometry relative="1" as="geometry">
            <mxPoint x="-242.5" y="536.25" as="sourcePoint" />
            <mxPoint x="-82.5" y="536.25" as="targetPoint" />
          </mxGeometry>
        </mxCell>
        <mxCell id="LvFEWfGlib69xMwCt4WK-57" value="Включает" style="shape=rhombus;perimeter=rhombusPerimeter;whiteSpace=wrap;html=1;align=center;" parent="1" vertex="1">
          <mxGeometry x="-402.5" y="558.13" width="140" height="92.5" as="geometry" />
        </mxCell>
        <mxCell id="LvFEWfGlib69xMwCt4WK-58" value="Меню" style="whiteSpace=wrap;html=1;align=center;" parent="1" vertex="1">
          <mxGeometry x="-560" y="574.38" width="120" height="60" as="geometry" />
        </mxCell>
        <mxCell id="LvFEWfGlib69xMwCt4WK-65" value="Тип меню" style="ellipse;whiteSpace=wrap;html=1;align=center;" parent="1" vertex="1">
          <mxGeometry x="-510" y="670" width="70" height="40" as="geometry" />
        </mxCell>
        <mxCell id="LvFEWfGlib69xMwCt4WK-66" value="ID" style="ellipse;whiteSpace=wrap;html=1;align=center;" parent="1" vertex="1">
          <mxGeometry x="-580" y="666.88" width="60" height="40" as="geometry" />
        </mxCell>
        <mxCell id="LvFEWfGlib69xMwCt4WK-67" value="" style="endArrow=none;html=1;rounded=0;" parent="1" source="LvFEWfGlib69xMwCt4WK-66" target="LvFEWfGlib69xMwCt4WK-58" edge="1">
          <mxGeometry relative="1" as="geometry">
            <mxPoint x="247.5" y="566.25" as="sourcePoint" />
            <mxPoint x="407.5" y="566.25" as="targetPoint" />
          </mxGeometry>
        </mxCell>
        <mxCell id="LvFEWfGlib69xMwCt4WK-68" value="" style="endArrow=none;html=1;rounded=0;" parent="1" source="LvFEWfGlib69xMwCt4WK-65" target="LvFEWfGlib69xMwCt4WK-58" edge="1">
          <mxGeometry relative="1" as="geometry">
            <mxPoint x="247.5" y="566.25" as="sourcePoint" />
            <mxPoint x="407.5" y="566.25" as="targetPoint" />
          </mxGeometry>
        </mxCell>
        <mxCell id="LvFEWfGlib69xMwCt4WK-71" value="Заказ" style="whiteSpace=wrap;html=1;align=center;" parent="1" vertex="1">
          <mxGeometry x="236.5" y="400" width="120" height="60" as="geometry" />
        </mxCell>
        <mxCell id="LvFEWfGlib69xMwCt4WK-72" value="Задействовано в" style="shape=rhombus;perimeter=rhombusPerimeter;whiteSpace=wrap;html=1;align=center;" parent="1" vertex="1">
          <mxGeometry x="-13.5" y="391.88" width="140" height="92.5" as="geometry" />
        </mxCell>
        <mxCell id="LvFEWfGlib69xMwCt4WK-75" value="" style="edgeStyle=entityRelationEdgeStyle;fontSize=12;html=1;endArrow=ERoneToMany;rounded=0;exitX=0;exitY=0.5;exitDx=0;exitDy=0;entryX=0.996;entryY=0.121;entryDx=0;entryDy=0;entryPerimeter=0;" parent="1" source="LvFEWfGlib69xMwCt4WK-72" target="LvFEWfGlib69xMwCt4WK-32" edge="1">
          <mxGeometry width="100" height="100" relative="1" as="geometry">
            <mxPoint x="-282.5" y="372.25" as="sourcePoint" />
            <mxPoint x="-102.5" y="466.25" as="targetPoint" />
          </mxGeometry>
        </mxCell>
        <mxCell id="LvFEWfGlib69xMwCt4WK-76" value="" style="edgeStyle=entityRelationEdgeStyle;fontSize=12;html=1;endArrow=ERoneToMany;rounded=0;entryX=0;entryY=0.75;entryDx=0;entryDy=0;" parent="1" source="LvFEWfGlib69xMwCt4WK-72" target="LvFEWfGlib69xMwCt4WK-71" edge="1">
          <mxGeometry width="100" height="100" relative="1" as="geometry">
            <mxPoint x="127.5" y="360" as="sourcePoint" />
            <mxPoint x="200" y="270" as="targetPoint" />
          </mxGeometry>
        </mxCell>
        <mxCell id="LvFEWfGlib69xMwCt4WK-77" value="ID" style="ellipse;whiteSpace=wrap;html=1;align=center;" parent="1" vertex="1">
          <mxGeometry x="255" y="312.5000000000001" width="70" height="40" as="geometry" />
        </mxCell>
        <mxCell id="LvFEWfGlib69xMwCt4WK-78" value="" style="endArrow=none;html=1;rounded=0;" parent="1" source="LvFEWfGlib69xMwCt4WK-77" target="LvFEWfGlib69xMwCt4WK-71" edge="1">
          <mxGeometry relative="1" as="geometry">
            <mxPoint x="-382.5" y="366.25" as="sourcePoint" />
            <mxPoint x="-222.5" y="366.25" as="targetPoint" />
          </mxGeometry>
        </mxCell>
        <mxCell id="tz4odHqhtknjw58s-V6p-4" value="" style="endArrow=none;html=1;rounded=0;" parent="1" source="tz4odHqhtknjw58s-V6p-1" target="LvFEWfGlib69xMwCt4WK-71" edge="1">
          <mxGeometry relative="1" as="geometry">
            <mxPoint x="196.5" y="408.25" as="sourcePoint" />
            <mxPoint x="232.5" y="386.25" as="targetPoint" />
          </mxGeometry>
        </mxCell>
        <mxCell id="tz4odHqhtknjw58s-V6p-10" value="" style="endArrow=none;html=1;rounded=0;" parent="1" source="tz4odHqhtknjw58s-V6p-1" target="LvFEWfGlib69xMwCt4WK-71" edge="1">
          <mxGeometry relative="1" as="geometry">
            <mxPoint x="297.5" y="446.25" as="sourcePoint" />
            <mxPoint x="287.5" y="386.25" as="targetPoint" />
          </mxGeometry>
        </mxCell>
        <mxCell id="tz4odHqhtknjw58s-V6p-28" value="Клиент" style="whiteSpace=wrap;html=1;align=center;" parent="1" vertex="1">
          <mxGeometry x="-203.5" y="278.75" width="120" height="60" as="geometry" />
        </mxCell>
        <mxCell id="tz4odHqhtknjw58s-V6p-29" value="Делает" style="shape=rhombus;perimeter=rhombusPerimeter;whiteSpace=wrap;html=1;align=center;" parent="1" vertex="1">
          <mxGeometry x="-13.5" y="290" width="140" height="92.5" as="geometry" />
        </mxCell>
        <mxCell id="tz4odHqhtknjw58s-V6p-32" value="ID" style="ellipse;whiteSpace=wrap;html=1;align=center;" parent="1" vertex="1">
          <mxGeometry x="-203.5" y="365" width="70" height="40" as="geometry" />
        </mxCell>
        <mxCell id="tz4odHqhtknjw58s-V6p-33" value="" style="endArrow=none;html=1;rounded=0;" parent="1" source="tz4odHqhtknjw58s-V6p-32" target="tz4odHqhtknjw58s-V6p-28" edge="1">
          <mxGeometry relative="1" as="geometry">
            <mxPoint x="-92.5" y="436.25" as="sourcePoint" />
            <mxPoint x="67.5" y="436.25" as="targetPoint" />
          </mxGeometry>
        </mxCell>
        <mxCell id="tz4odHqhtknjw58s-V6p-35" value="Работник" style="whiteSpace=wrap;html=1;align=center;" parent="1" vertex="1">
          <mxGeometry x="-535" y="273.75" width="120" height="60" as="geometry" />
        </mxCell>
        <mxCell id="tz4odHqhtknjw58s-V6p-40" value="ID" style="ellipse;whiteSpace=wrap;html=1;align=center;" parent="1" vertex="1">
          <mxGeometry x="-700" y="190" width="70" height="40" as="geometry" />
        </mxCell>
        <mxCell id="tz4odHqhtknjw58s-V6p-41" value="Зарплата&lt;div&gt;в руб&lt;/div&gt;" style="ellipse;whiteSpace=wrap;html=1;align=center;direction=west;" parent="1" vertex="1">
          <mxGeometry x="-690" y="460" width="70" height="40" as="geometry" />
        </mxCell>
        <mxCell id="tz4odHqhtknjw58s-V6p-45" value="" style="endArrow=none;html=1;rounded=0;" parent="1" source="tz4odHqhtknjw58s-V6p-40" target="tz4odHqhtknjw58s-V6p-35" edge="1">
          <mxGeometry relative="1" as="geometry">
            <mxPoint x="-669.1947570251334" y="195.9253708348281" as="sourcePoint" />
            <mxPoint x="-297.5" y="230" as="targetPoint" />
          </mxGeometry>
        </mxCell>
        <mxCell id="tz4odHqhtknjw58s-V6p-46" value="" style="endArrow=none;html=1;rounded=0;" parent="1" source="1T5PfgBi2zAFqyrYh7HE-7" target="tz4odHqhtknjw58s-V6p-35" edge="1">
          <mxGeometry relative="1" as="geometry">
            <mxPoint x="-648.2407936885586" y="234.14649780549234" as="sourcePoint" />
            <mxPoint x="-297.5" y="330" as="targetPoint" />
          </mxGeometry>
        </mxCell>
        <mxCell id="tz4odHqhtknjw58s-V6p-47" value="" style="endArrow=none;html=1;rounded=0;" parent="1" source="tz4odHqhtknjw58s-V6p-41" target="tz4odHqhtknjw58s-V6p-35" edge="1">
          <mxGeometry relative="1" as="geometry">
            <mxPoint x="-603.9801561042862" y="233.76789259213683" as="sourcePoint" />
            <mxPoint x="-297.5" y="330" as="targetPoint" />
          </mxGeometry>
        </mxCell>
        <mxCell id="tz4odHqhtknjw58s-V6p-49" value="Готовит" style="shape=rhombus;perimeter=rhombusPerimeter;whiteSpace=wrap;html=1;align=center;" parent="1" vertex="1">
          <mxGeometry x="-402.5" y="356.25" width="140" height="92.5" as="geometry" />
        </mxCell>
        <mxCell id="tz4odHqhtknjw58s-V6p-53" value="" style="edgeStyle=entityRelationEdgeStyle;fontSize=12;html=1;endArrow=ERoneToMany;rounded=0;entryX=0;entryY=0.25;entryDx=0;entryDy=0;" parent="1" source="tz4odHqhtknjw58s-V6p-49" target="LvFEWfGlib69xMwCt4WK-32" edge="1">
          <mxGeometry width="100" height="100" relative="1" as="geometry">
            <mxPoint x="-232.5" y="390" as="sourcePoint" />
            <mxPoint x="-302.5" y="430" as="targetPoint" />
          </mxGeometry>
        </mxCell>
        <mxCell id="tz4odHqhtknjw58s-V6p-61" value="Оформляет" style="shape=rhombus;perimeter=rhombusPerimeter;whiteSpace=wrap;html=1;align=center;" parent="1" vertex="1">
          <mxGeometry x="-13.5" y="186.25" width="140" height="92.5" as="geometry" />
        </mxCell>
        <mxCell id="tz4odHqhtknjw58s-V6p-65" value="" style="edgeStyle=entityRelationEdgeStyle;fontSize=12;html=1;endArrow=ERoneToMany;rounded=0;endSize=6;entryX=0;entryY=0.25;entryDx=0;entryDy=0;" parent="1" source="tz4odHqhtknjw58s-V6p-61" target="LvFEWfGlib69xMwCt4WK-71" edge="1">
          <mxGeometry width="100" height="100" relative="1" as="geometry">
            <mxPoint x="127.5" y="59.5" as="sourcePoint" />
            <mxPoint x="190" y="160" as="targetPoint" />
            <Array as="points">
              <mxPoint x="140" y="170" />
              <mxPoint x="150" y="200" />
              <mxPoint x="158" y="230" />
              <mxPoint x="197.5" y="292.24" />
              <mxPoint x="187.5" y="306.25" />
            </Array>
          </mxGeometry>
        </mxCell>
        <mxCell id="yZC3clbUCUtn4CxKW6aq-1" value="Столовая" style="html=1;whiteSpace=wrap;" parent="1" vertex="1">
          <mxGeometry x="-83.5" y="1090" width="225" height="100" as="geometry" />
        </mxCell>
        <mxCell id="yZC3clbUCUtn4CxKW6aq-2" value="" style="endArrow=classic;html=1;rounded=0;" parent="1" edge="1">
          <mxGeometry width="50" height="50" relative="1" as="geometry">
            <mxPoint x="-123.5" y="1100" as="sourcePoint" />
            <mxPoint x="-83.5" y="1100" as="targetPoint" />
          </mxGeometry>
        </mxCell>
        <mxCell id="yZC3clbUCUtn4CxKW6aq-3" value="Заказ клиента" style="text;html=1;align=center;verticalAlign=middle;whiteSpace=wrap;rounded=0;" parent="1" vertex="1">
          <mxGeometry x="-223.5" y="1080" width="100" height="30" as="geometry" />
        </mxCell>
        <mxCell id="yZC3clbUCUtn4CxKW6aq-4" value="" style="endArrow=classic;html=1;rounded=0;" parent="1" edge="1">
          <mxGeometry width="50" height="50" relative="1" as="geometry">
            <mxPoint x="141.5" y="1100" as="sourcePoint" />
            <mxPoint x="181.5" y="1100" as="targetPoint" />
          </mxGeometry>
        </mxCell>
        <mxCell id="yZC3clbUCUtn4CxKW6aq-5" value="Отчёт о заказах" style="text;html=1;align=center;verticalAlign=middle;whiteSpace=wrap;rounded=0;" parent="1" vertex="1">
          <mxGeometry x="186.5" y="1080" width="120" height="30" as="geometry" />
        </mxCell>
        <mxCell id="yZC3clbUCUtn4CxKW6aq-7" value="" style="endArrow=classic;html=1;rounded=0;" parent="1" edge="1">
          <mxGeometry width="50" height="50" relative="1" as="geometry">
            <mxPoint x="-123.5" y="1140" as="sourcePoint" />
            <mxPoint x="-83.5" y="1140" as="targetPoint" />
          </mxGeometry>
        </mxCell>
        <mxCell id="yZC3clbUCUtn4CxKW6aq-8" value="" style="endArrow=classic;html=1;rounded=0;" parent="1" edge="1">
          <mxGeometry width="50" height="50" relative="1" as="geometry">
            <mxPoint x="141.5" y="1140" as="sourcePoint" />
            <mxPoint x="181.5" y="1140" as="targetPoint" />
          </mxGeometry>
        </mxCell>
        <mxCell id="yZC3clbUCUtn4CxKW6aq-10" value="Информация о поставке" style="text;html=1;align=center;verticalAlign=middle;whiteSpace=wrap;rounded=0;" parent="1" vertex="1">
          <mxGeometry x="-223.5" y="1120" width="95" height="30" as="geometry" />
        </mxCell>
        <mxCell id="yZC3clbUCUtn4CxKW6aq-11" value="Отчёт о количестве продуктов" style="text;html=1;align=center;verticalAlign=middle;whiteSpace=wrap;rounded=0;" parent="1" vertex="1">
          <mxGeometry x="186.5" y="1120" width="130" height="30" as="geometry" />
        </mxCell>
        <mxCell id="yZC3clbUCUtn4CxKW6aq-12" value="" style="endArrow=classic;html=1;rounded=0;" parent="1" edge="1">
          <mxGeometry width="50" height="50" relative="1" as="geometry">
            <mxPoint x="-123.5" y="1179.67" as="sourcePoint" />
            <mxPoint x="-83.5" y="1179.67" as="targetPoint" />
          </mxGeometry>
        </mxCell>
        <mxCell id="yZC3clbUCUtn4CxKW6aq-13" value="Список работников" style="text;html=1;align=center;verticalAlign=middle;whiteSpace=wrap;rounded=0;" parent="1" vertex="1">
          <mxGeometry x="-243.5" y="1160" width="115" height="30" as="geometry" />
        </mxCell>
        <mxCell id="yZC3clbUCUtn4CxKW6aq-14" value="Отчёт о зарплатах" style="text;html=1;align=center;verticalAlign=middle;whiteSpace=wrap;rounded=0;" parent="1" vertex="1">
          <mxGeometry x="186.5" y="1160" width="120" height="30" as="geometry" />
        </mxCell>
        <mxCell id="yZC3clbUCUtn4CxKW6aq-15" value="" style="endArrow=classic;html=1;rounded=0;" parent="1" edge="1">
          <mxGeometry width="50" height="50" relative="1" as="geometry">
            <mxPoint x="141.5" y="1179.66" as="sourcePoint" />
            <mxPoint x="181.5" y="1179.66" as="targetPoint" />
          </mxGeometry>
        </mxCell>
        <mxCell id="yZC3clbUCUtn4CxKW6aq-150" value="" style="shape=table;startSize=0;container=1;collapsible=0;childLayout=tableLayout;fontSize=16;" parent="1" vertex="1">
          <mxGeometry x="-282.5" y="1290" width="310" height="240" as="geometry" />
        </mxCell>
        <mxCell id="yZC3clbUCUtn4CxKW6aq-151" value="" style="shape=tableRow;horizontal=0;startSize=0;swimlaneHead=0;swimlaneBody=0;strokeColor=inherit;top=0;left=0;bottom=0;right=0;collapsible=0;dropTarget=0;fillColor=none;points=[[0,0.5],[1,0.5]];portConstraint=eastwest;fontSize=16;" parent="yZC3clbUCUtn4CxKW6aq-150" vertex="1">
          <mxGeometry width="310" height="60" as="geometry" />
        </mxCell>
        <mxCell id="yZC3clbUCUtn4CxKW6aq-152" value="&lt;font style=&quot;font-size: 14px;&quot;&gt;Наименование&lt;/font&gt;&lt;div&gt;&lt;font style=&quot;font-size: 14px;&quot;&gt;и назначение потока&lt;/font&gt;&lt;/div&gt;" style="shape=partialRectangle;html=1;whiteSpace=wrap;connectable=0;strokeColor=inherit;overflow=hidden;fillColor=none;top=0;left=0;bottom=0;right=0;pointerEvents=1;fontSize=16;" parent="yZC3clbUCUtn4CxKW6aq-151" vertex="1">
          <mxGeometry width="103" height="60" as="geometry">
            <mxRectangle width="103" height="60" as="alternateBounds" />
          </mxGeometry>
        </mxCell>
        <mxCell id="yZC3clbUCUtn4CxKW6aq-153" value="&lt;font style=&quot;font-size: 14px;&quot;&gt;Форма&lt;/font&gt;&lt;div&gt;&lt;font style=&quot;font-size: 14px;&quot;&gt;представления&lt;/font&gt;&lt;/div&gt;" style="shape=partialRectangle;html=1;whiteSpace=wrap;connectable=0;strokeColor=inherit;overflow=hidden;fillColor=none;top=0;left=0;bottom=0;right=0;pointerEvents=1;fontSize=16;" parent="yZC3clbUCUtn4CxKW6aq-151" vertex="1">
          <mxGeometry x="103" width="104" height="60" as="geometry">
            <mxRectangle width="104" height="60" as="alternateBounds" />
          </mxGeometry>
        </mxCell>
        <mxCell id="yZC3clbUCUtn4CxKW6aq-154" value="&lt;font style=&quot;font-size: 14px;&quot;&gt;Обработчик&lt;/font&gt;" style="shape=partialRectangle;html=1;whiteSpace=wrap;connectable=0;strokeColor=inherit;overflow=hidden;fillColor=none;top=0;left=0;bottom=0;right=0;pointerEvents=1;fontSize=16;" parent="yZC3clbUCUtn4CxKW6aq-151" vertex="1">
          <mxGeometry x="207" width="103" height="60" as="geometry">
            <mxRectangle width="103" height="60" as="alternateBounds" />
          </mxGeometry>
        </mxCell>
        <mxCell id="yZC3clbUCUtn4CxKW6aq-176" value="" style="shape=tableRow;horizontal=0;startSize=0;swimlaneHead=0;swimlaneBody=0;strokeColor=inherit;top=0;left=0;bottom=0;right=0;collapsible=0;dropTarget=0;fillColor=none;points=[[0,0.5],[1,0.5]];portConstraint=eastwest;fontSize=16;" parent="yZC3clbUCUtn4CxKW6aq-150" vertex="1">
          <mxGeometry y="60" width="310" height="60" as="geometry" />
        </mxCell>
        <mxCell id="yZC3clbUCUtn4CxKW6aq-177" value="&lt;font style=&quot;font-size: 14px;&quot;&gt;Заказ&lt;/font&gt;&lt;div&gt;&lt;font style=&quot;font-size: 14px;&quot;&gt;клиента&lt;/font&gt;&lt;/div&gt;" style="shape=partialRectangle;html=1;whiteSpace=wrap;connectable=0;strokeColor=inherit;overflow=hidden;fillColor=none;top=0;left=0;bottom=0;right=0;pointerEvents=1;fontSize=16;" parent="yZC3clbUCUtn4CxKW6aq-176" vertex="1">
          <mxGeometry width="103" height="60" as="geometry">
            <mxRectangle width="103" height="60" as="alternateBounds" />
          </mxGeometry>
        </mxCell>
        <mxCell id="yZC3clbUCUtn4CxKW6aq-178" value="&lt;font style=&quot;font-size: 14px;&quot;&gt;Устное&lt;/font&gt;&lt;div&gt;&lt;font style=&quot;font-size: 14px;&quot;&gt;сообщение&lt;/font&gt;&lt;/div&gt;" style="shape=partialRectangle;html=1;whiteSpace=wrap;connectable=0;strokeColor=inherit;overflow=hidden;fillColor=none;top=0;left=0;bottom=0;right=0;pointerEvents=1;fontSize=16;" parent="yZC3clbUCUtn4CxKW6aq-176" vertex="1">
          <mxGeometry x="103" width="104" height="60" as="geometry">
            <mxRectangle width="104" height="60" as="alternateBounds" />
          </mxGeometry>
        </mxCell>
        <mxCell id="yZC3clbUCUtn4CxKW6aq-179" value="&lt;font style=&quot;font-size: 14px;&quot;&gt;Работник&lt;/font&gt;&lt;div&gt;&lt;span style=&quot;background-color: transparent; color: light-dark(rgb(0, 0, 0), rgb(255, 255, 255)); font-size: 14px;&quot;&gt;на&amp;nbsp;&lt;/span&gt;&lt;span style=&quot;font-size: 14px; background-color: transparent; color: light-dark(rgb(0, 0, 0), rgb(255, 255, 255));&quot;&gt;раздаче&lt;/span&gt;&lt;div&gt;&lt;div&gt;&lt;font style=&quot;font-size: 14px;&quot;&gt;и кассир&lt;/font&gt;&lt;/div&gt;&lt;/div&gt;&lt;/div&gt;" style="shape=partialRectangle;html=1;whiteSpace=wrap;connectable=0;strokeColor=inherit;overflow=hidden;fillColor=none;top=0;left=0;bottom=0;right=0;pointerEvents=1;fontSize=16;" parent="yZC3clbUCUtn4CxKW6aq-176" vertex="1">
          <mxGeometry x="207" width="103" height="60" as="geometry">
            <mxRectangle width="103" height="60" as="alternateBounds" />
          </mxGeometry>
        </mxCell>
        <mxCell id="yZC3clbUCUtn4CxKW6aq-155" value="" style="shape=tableRow;horizontal=0;startSize=0;swimlaneHead=0;swimlaneBody=0;strokeColor=inherit;top=0;left=0;bottom=0;right=0;collapsible=0;dropTarget=0;fillColor=none;points=[[0,0.5],[1,0.5]];portConstraint=eastwest;fontSize=16;" parent="yZC3clbUCUtn4CxKW6aq-150" vertex="1">
          <mxGeometry y="120" width="310" height="60" as="geometry" />
        </mxCell>
        <mxCell id="yZC3clbUCUtn4CxKW6aq-156" value="&lt;span style=&quot;font-size: 14px;&quot;&gt;Информация&lt;/span&gt;&lt;div&gt;&lt;span style=&quot;font-size: 14px;&quot;&gt;о поставке&lt;/span&gt;&lt;/div&gt;" style="shape=partialRectangle;html=1;whiteSpace=wrap;connectable=0;strokeColor=inherit;overflow=hidden;fillColor=none;top=0;left=0;bottom=0;right=0;pointerEvents=1;fontSize=16;" parent="yZC3clbUCUtn4CxKW6aq-155" vertex="1">
          <mxGeometry width="103" height="60" as="geometry">
            <mxRectangle width="103" height="60" as="alternateBounds" />
          </mxGeometry>
        </mxCell>
        <mxCell id="yZC3clbUCUtn4CxKW6aq-157" value="&lt;span style=&quot;font-size: 14px;&quot;&gt;Документ&lt;/span&gt;" style="shape=partialRectangle;html=1;whiteSpace=wrap;connectable=0;strokeColor=inherit;overflow=hidden;fillColor=none;top=0;left=0;bottom=0;right=0;pointerEvents=1;fontSize=16;" parent="yZC3clbUCUtn4CxKW6aq-155" vertex="1">
          <mxGeometry x="103" width="104" height="60" as="geometry">
            <mxRectangle width="104" height="60" as="alternateBounds" />
          </mxGeometry>
        </mxCell>
        <mxCell id="yZC3clbUCUtn4CxKW6aq-158" value="&lt;span style=&quot;font-size: 14px;&quot;&gt;Работник&lt;/span&gt;&lt;div&gt;&lt;span style=&quot;font-size: 14px;&quot;&gt;кухни&lt;/span&gt;&lt;/div&gt;" style="shape=partialRectangle;html=1;whiteSpace=wrap;connectable=0;strokeColor=inherit;overflow=hidden;fillColor=none;top=0;left=0;bottom=0;right=0;pointerEvents=1;fontSize=16;" parent="yZC3clbUCUtn4CxKW6aq-155" vertex="1">
          <mxGeometry x="207" width="103" height="60" as="geometry">
            <mxRectangle width="103" height="60" as="alternateBounds" />
          </mxGeometry>
        </mxCell>
        <mxCell id="yZC3clbUCUtn4CxKW6aq-159" value="" style="shape=tableRow;horizontal=0;startSize=0;swimlaneHead=0;swimlaneBody=0;strokeColor=inherit;top=0;left=0;bottom=0;right=0;collapsible=0;dropTarget=0;fillColor=none;points=[[0,0.5],[1,0.5]];portConstraint=eastwest;fontSize=16;" parent="yZC3clbUCUtn4CxKW6aq-150" vertex="1">
          <mxGeometry y="180" width="310" height="60" as="geometry" />
        </mxCell>
        <mxCell id="yZC3clbUCUtn4CxKW6aq-160" value="&lt;span style=&quot;font-size: 14px;&quot;&gt;Список работников&lt;/span&gt;" style="shape=partialRectangle;html=1;whiteSpace=wrap;connectable=0;strokeColor=inherit;overflow=hidden;fillColor=none;top=0;left=0;bottom=0;right=0;pointerEvents=1;fontSize=16;" parent="yZC3clbUCUtn4CxKW6aq-159" vertex="1">
          <mxGeometry width="103" height="60" as="geometry">
            <mxRectangle width="103" height="60" as="alternateBounds" />
          </mxGeometry>
        </mxCell>
        <mxCell id="yZC3clbUCUtn4CxKW6aq-161" value="&lt;span style=&quot;font-size: 14px;&quot;&gt;Документ&lt;/span&gt;" style="shape=partialRectangle;html=1;whiteSpace=wrap;connectable=0;strokeColor=inherit;overflow=hidden;fillColor=none;top=0;left=0;bottom=0;right=0;pointerEvents=1;fontSize=16;" parent="yZC3clbUCUtn4CxKW6aq-159" vertex="1">
          <mxGeometry x="103" width="104" height="60" as="geometry">
            <mxRectangle width="104" height="60" as="alternateBounds" />
          </mxGeometry>
        </mxCell>
        <mxCell id="yZC3clbUCUtn4CxKW6aq-162" value="&lt;span style=&quot;font-size: 14px;&quot;&gt;Бухгалтер&lt;/span&gt;" style="shape=partialRectangle;html=1;whiteSpace=wrap;connectable=0;strokeColor=inherit;overflow=hidden;fillColor=none;top=0;left=0;bottom=0;right=0;pointerEvents=1;fontSize=16;" parent="yZC3clbUCUtn4CxKW6aq-159" vertex="1">
          <mxGeometry x="207" width="103" height="60" as="geometry">
            <mxRectangle width="103" height="60" as="alternateBounds" />
          </mxGeometry>
        </mxCell>
        <mxCell id="yZC3clbUCUtn4CxKW6aq-163" value="" style="shape=table;startSize=0;container=1;collapsible=0;childLayout=tableLayout;fontSize=16;" parent="1" vertex="1">
          <mxGeometry x="26.5" y="1290" width="330" height="240" as="geometry" />
        </mxCell>
        <mxCell id="yZC3clbUCUtn4CxKW6aq-164" value="" style="shape=tableRow;horizontal=0;startSize=0;swimlaneHead=0;swimlaneBody=0;strokeColor=inherit;top=0;left=0;bottom=0;right=0;collapsible=0;dropTarget=0;fillColor=none;points=[[0,0.5],[1,0.5]];portConstraint=eastwest;fontSize=16;" parent="yZC3clbUCUtn4CxKW6aq-163" vertex="1">
          <mxGeometry width="330" height="60" as="geometry" />
        </mxCell>
        <mxCell id="yZC3clbUCUtn4CxKW6aq-165" value="&lt;font style=&quot;font-size: 14px;&quot;&gt;Корреспондент&lt;/font&gt;" style="shape=partialRectangle;html=1;whiteSpace=wrap;connectable=0;strokeColor=inherit;overflow=hidden;fillColor=none;top=0;left=0;bottom=0;right=0;pointerEvents=1;fontSize=16;" parent="yZC3clbUCUtn4CxKW6aq-164" vertex="1">
          <mxGeometry width="110" height="60" as="geometry">
            <mxRectangle width="110" height="60" as="alternateBounds" />
          </mxGeometry>
        </mxCell>
        <mxCell id="yZC3clbUCUtn4CxKW6aq-166" value="&lt;div&gt;&lt;font style=&quot;font-size: 14px;&quot;&gt;&lt;br&gt;&lt;/font&gt;&lt;/div&gt;&lt;div&gt;&lt;font style=&quot;font-size: 14px;&quot;&gt;Трудозатраты&lt;/font&gt;&lt;/div&gt;" style="shape=partialRectangle;html=1;whiteSpace=wrap;connectable=0;strokeColor=inherit;overflow=hidden;fillColor=none;top=0;left=0;bottom=0;right=0;pointerEvents=1;fontSize=16;" parent="yZC3clbUCUtn4CxKW6aq-164" vertex="1">
          <mxGeometry x="110" width="110" height="60" as="geometry">
            <mxRectangle width="110" height="60" as="alternateBounds" />
          </mxGeometry>
        </mxCell>
        <mxCell id="yZC3clbUCUtn4CxKW6aq-167" value="&lt;div&gt;&lt;font style=&quot;font-size: 14px;&quot;&gt;&lt;br&gt;&lt;/font&gt;&lt;/div&gt;&lt;font style=&quot;font-size: 14px;&quot;&gt;Периодичность&lt;/font&gt;" style="shape=partialRectangle;html=1;whiteSpace=wrap;connectable=0;strokeColor=inherit;overflow=hidden;fillColor=none;top=0;left=0;bottom=0;right=0;pointerEvents=1;fontSize=16;" parent="yZC3clbUCUtn4CxKW6aq-164" vertex="1">
          <mxGeometry x="220" width="110" height="60" as="geometry">
            <mxRectangle width="110" height="60" as="alternateBounds" />
          </mxGeometry>
        </mxCell>
        <mxCell id="yZC3clbUCUtn4CxKW6aq-168" value="" style="shape=tableRow;horizontal=0;startSize=0;swimlaneHead=0;swimlaneBody=0;strokeColor=inherit;top=0;left=0;bottom=0;right=0;collapsible=0;dropTarget=0;fillColor=none;points=[[0,0.5],[1,0.5]];portConstraint=eastwest;fontSize=16;" parent="yZC3clbUCUtn4CxKW6aq-163" vertex="1">
          <mxGeometry y="60" width="330" height="60" as="geometry" />
        </mxCell>
        <mxCell id="yZC3clbUCUtn4CxKW6aq-169" value="&lt;font style=&quot;font-size: 14px;&quot;&gt;Клиент&lt;/font&gt;" style="shape=partialRectangle;html=1;whiteSpace=wrap;connectable=0;strokeColor=inherit;overflow=hidden;fillColor=none;top=0;left=0;bottom=0;right=0;pointerEvents=1;fontSize=16;" parent="yZC3clbUCUtn4CxKW6aq-168" vertex="1">
          <mxGeometry width="110" height="60" as="geometry">
            <mxRectangle width="110" height="60" as="alternateBounds" />
          </mxGeometry>
        </mxCell>
        <mxCell id="yZC3clbUCUtn4CxKW6aq-170" value="&lt;font style=&quot;font-size: 14px;&quot;&gt;8 чел.ч&lt;/font&gt;" style="shape=partialRectangle;html=1;whiteSpace=wrap;connectable=0;strokeColor=inherit;overflow=hidden;fillColor=none;top=0;left=0;bottom=0;right=0;pointerEvents=1;fontSize=16;" parent="yZC3clbUCUtn4CxKW6aq-168" vertex="1">
          <mxGeometry x="110" width="110" height="60" as="geometry">
            <mxRectangle width="110" height="60" as="alternateBounds" />
          </mxGeometry>
        </mxCell>
        <mxCell id="yZC3clbUCUtn4CxKW6aq-171" value="&lt;font style=&quot;font-size: 14px;&quot;&gt;Каждый день&lt;/font&gt;&lt;div&gt;&lt;font style=&quot;font-size: 14px;&quot;&gt;с 9:00 до 17:00&lt;/font&gt;&lt;/div&gt;" style="shape=partialRectangle;html=1;whiteSpace=wrap;connectable=0;strokeColor=inherit;overflow=hidden;fillColor=none;top=0;left=0;bottom=0;right=0;pointerEvents=1;fontSize=16;" parent="yZC3clbUCUtn4CxKW6aq-168" vertex="1">
          <mxGeometry x="220" width="110" height="60" as="geometry">
            <mxRectangle width="110" height="60" as="alternateBounds" />
          </mxGeometry>
        </mxCell>
        <mxCell id="yZC3clbUCUtn4CxKW6aq-180" value="" style="shape=tableRow;horizontal=0;startSize=0;swimlaneHead=0;swimlaneBody=0;strokeColor=inherit;top=0;left=0;bottom=0;right=0;collapsible=0;dropTarget=0;fillColor=none;points=[[0,0.5],[1,0.5]];portConstraint=eastwest;fontSize=16;" parent="yZC3clbUCUtn4CxKW6aq-163" vertex="1">
          <mxGeometry y="120" width="330" height="60" as="geometry" />
        </mxCell>
        <mxCell id="yZC3clbUCUtn4CxKW6aq-181" value="&lt;span style=&quot;font-size: 14px;&quot;&gt;Поставщик&lt;/span&gt;" style="shape=partialRectangle;html=1;whiteSpace=wrap;connectable=0;strokeColor=inherit;overflow=hidden;fillColor=none;top=0;left=0;bottom=0;right=0;pointerEvents=1;fontSize=16;" parent="yZC3clbUCUtn4CxKW6aq-180" vertex="1">
          <mxGeometry width="110" height="60" as="geometry">
            <mxRectangle width="110" height="60" as="alternateBounds" />
          </mxGeometry>
        </mxCell>
        <mxCell id="yZC3clbUCUtn4CxKW6aq-182" value="&lt;span style=&quot;font-size: 14px;&quot;&gt;2 чел.ч&lt;/span&gt;" style="shape=partialRectangle;html=1;whiteSpace=wrap;connectable=0;strokeColor=inherit;overflow=hidden;fillColor=none;top=0;left=0;bottom=0;right=0;pointerEvents=1;fontSize=16;" parent="yZC3clbUCUtn4CxKW6aq-180" vertex="1">
          <mxGeometry x="110" width="110" height="60" as="geometry">
            <mxRectangle width="110" height="60" as="alternateBounds" />
          </mxGeometry>
        </mxCell>
        <mxCell id="yZC3clbUCUtn4CxKW6aq-183" value="&lt;font style=&quot;font-size: 14px;&quot;&gt;Каждый день&lt;/font&gt;&lt;div&gt;&lt;font style=&quot;font-size: 14px;&quot;&gt;с 7:00 до 9:00&lt;/font&gt;&lt;/div&gt;" style="shape=partialRectangle;html=1;whiteSpace=wrap;connectable=0;strokeColor=inherit;overflow=hidden;fillColor=none;top=0;left=0;bottom=0;right=0;pointerEvents=1;fontSize=16;" parent="yZC3clbUCUtn4CxKW6aq-180" vertex="1">
          <mxGeometry x="220" width="110" height="60" as="geometry">
            <mxRectangle width="110" height="60" as="alternateBounds" />
          </mxGeometry>
        </mxCell>
        <mxCell id="yZC3clbUCUtn4CxKW6aq-172" value="" style="shape=tableRow;horizontal=0;startSize=0;swimlaneHead=0;swimlaneBody=0;strokeColor=inherit;top=0;left=0;bottom=0;right=0;collapsible=0;dropTarget=0;fillColor=none;points=[[0,0.5],[1,0.5]];portConstraint=eastwest;fontSize=16;" parent="yZC3clbUCUtn4CxKW6aq-163" vertex="1">
          <mxGeometry y="180" width="330" height="60" as="geometry" />
        </mxCell>
        <mxCell id="yZC3clbUCUtn4CxKW6aq-173" value="&lt;span style=&quot;font-size: 14px;&quot;&gt;Предприятие&lt;/span&gt;" style="shape=partialRectangle;html=1;whiteSpace=wrap;connectable=0;strokeColor=inherit;overflow=hidden;fillColor=none;top=0;left=0;bottom=0;right=0;pointerEvents=1;fontSize=16;" parent="yZC3clbUCUtn4CxKW6aq-172" vertex="1">
          <mxGeometry width="110" height="60" as="geometry">
            <mxRectangle width="110" height="60" as="alternateBounds" />
          </mxGeometry>
        </mxCell>
        <mxCell id="yZC3clbUCUtn4CxKW6aq-174" value="&lt;span style=&quot;font-size: 14px;&quot;&gt;3 чел.ч&lt;/span&gt;" style="shape=partialRectangle;html=1;whiteSpace=wrap;connectable=0;strokeColor=inherit;overflow=hidden;fillColor=none;top=0;left=0;bottom=0;right=0;pointerEvents=1;fontSize=16;" parent="yZC3clbUCUtn4CxKW6aq-172" vertex="1">
          <mxGeometry x="110" width="110" height="60" as="geometry">
            <mxRectangle width="110" height="60" as="alternateBounds" />
          </mxGeometry>
        </mxCell>
        <mxCell id="yZC3clbUCUtn4CxKW6aq-175" value="&lt;font style=&quot;font-size: 14px;&quot;&gt;Каждый день&lt;/font&gt;&lt;div&gt;&lt;font style=&quot;font-size: 14px;&quot;&gt;с 9:00 до 12:00&lt;/font&gt;&lt;/div&gt;" style="shape=partialRectangle;html=1;whiteSpace=wrap;connectable=0;strokeColor=inherit;overflow=hidden;fillColor=none;top=0;left=0;bottom=0;right=0;pointerEvents=1;fontSize=16;" parent="yZC3clbUCUtn4CxKW6aq-172" vertex="1">
          <mxGeometry x="220" width="110" height="60" as="geometry">
            <mxRectangle width="110" height="60" as="alternateBounds" />
          </mxGeometry>
        </mxCell>
        <mxCell id="yZC3clbUCUtn4CxKW6aq-185" value="&lt;font style=&quot;font-size: 14px;&quot;&gt;Характеристики обработки&lt;/font&gt;" style="shape=ext;double=1;rounded=0;whiteSpace=wrap;html=1;" parent="1" vertex="1">
          <mxGeometry x="136.5" y="1290" width="220" height="30" as="geometry" />
        </mxCell>
        <mxCell id="yZC3clbUCUtn4CxKW6aq-186" value="Реестр входных информационных потоков" style="text;strokeColor=none;fillColor=none;html=1;fontSize=24;fontStyle=1;verticalAlign=middle;align=center;" parent="1" vertex="1">
          <mxGeometry x="-13.5" y="1250" width="100" height="40" as="geometry" />
        </mxCell>
        <mxCell id="yZC3clbUCUtn4CxKW6aq-188" value="" style="shape=table;startSize=0;container=1;collapsible=0;childLayout=tableLayout;fontSize=16;" parent="1" vertex="1">
          <mxGeometry x="-282.5" y="1640" width="310" height="240" as="geometry" />
        </mxCell>
        <mxCell id="yZC3clbUCUtn4CxKW6aq-189" value="" style="shape=tableRow;horizontal=0;startSize=0;swimlaneHead=0;swimlaneBody=0;strokeColor=inherit;top=0;left=0;bottom=0;right=0;collapsible=0;dropTarget=0;fillColor=none;points=[[0,0.5],[1,0.5]];portConstraint=eastwest;fontSize=16;" parent="yZC3clbUCUtn4CxKW6aq-188" vertex="1">
          <mxGeometry width="310" height="60" as="geometry" />
        </mxCell>
        <mxCell id="yZC3clbUCUtn4CxKW6aq-190" value="&lt;font style=&quot;font-size: 14px;&quot;&gt;Наименование&lt;/font&gt;&lt;div&gt;&lt;font style=&quot;font-size: 14px;&quot;&gt;и назначение потока&lt;/font&gt;&lt;/div&gt;" style="shape=partialRectangle;html=1;whiteSpace=wrap;connectable=0;strokeColor=inherit;overflow=hidden;fillColor=none;top=0;left=0;bottom=0;right=0;pointerEvents=1;fontSize=16;" parent="yZC3clbUCUtn4CxKW6aq-189" vertex="1">
          <mxGeometry width="103" height="60" as="geometry">
            <mxRectangle width="103" height="60" as="alternateBounds" />
          </mxGeometry>
        </mxCell>
        <mxCell id="yZC3clbUCUtn4CxKW6aq-191" value="&lt;font style=&quot;font-size: 14px;&quot;&gt;Форма&lt;/font&gt;&lt;div&gt;&lt;font style=&quot;font-size: 14px;&quot;&gt;представления&lt;/font&gt;&lt;/div&gt;" style="shape=partialRectangle;html=1;whiteSpace=wrap;connectable=0;strokeColor=inherit;overflow=hidden;fillColor=none;top=0;left=0;bottom=0;right=0;pointerEvents=1;fontSize=16;" parent="yZC3clbUCUtn4CxKW6aq-189" vertex="1">
          <mxGeometry x="103" width="104" height="60" as="geometry">
            <mxRectangle width="104" height="60" as="alternateBounds" />
          </mxGeometry>
        </mxCell>
        <mxCell id="yZC3clbUCUtn4CxKW6aq-192" value="&lt;font style=&quot;font-size: 14px;&quot;&gt;Обработчик&lt;/font&gt;" style="shape=partialRectangle;html=1;whiteSpace=wrap;connectable=0;strokeColor=inherit;overflow=hidden;fillColor=none;top=0;left=0;bottom=0;right=0;pointerEvents=1;fontSize=16;" parent="yZC3clbUCUtn4CxKW6aq-189" vertex="1">
          <mxGeometry x="207" width="103" height="60" as="geometry">
            <mxRectangle width="103" height="60" as="alternateBounds" />
          </mxGeometry>
        </mxCell>
        <mxCell id="yZC3clbUCUtn4CxKW6aq-193" value="" style="shape=tableRow;horizontal=0;startSize=0;swimlaneHead=0;swimlaneBody=0;strokeColor=inherit;top=0;left=0;bottom=0;right=0;collapsible=0;dropTarget=0;fillColor=none;points=[[0,0.5],[1,0.5]];portConstraint=eastwest;fontSize=16;" parent="yZC3clbUCUtn4CxKW6aq-188" vertex="1">
          <mxGeometry y="60" width="310" height="60" as="geometry" />
        </mxCell>
        <mxCell id="yZC3clbUCUtn4CxKW6aq-194" value="&lt;span style=&quot;font-size: 14px;&quot;&gt;Отчёт&lt;/span&gt;&lt;div&gt;&lt;span style=&quot;font-size: 14px;&quot;&gt;о заказах&lt;/span&gt;&lt;/div&gt;" style="shape=partialRectangle;html=1;whiteSpace=wrap;connectable=0;strokeColor=inherit;overflow=hidden;fillColor=none;top=0;left=0;bottom=0;right=0;pointerEvents=1;fontSize=16;" parent="yZC3clbUCUtn4CxKW6aq-193" vertex="1">
          <mxGeometry width="103" height="60" as="geometry">
            <mxRectangle width="103" height="60" as="alternateBounds" />
          </mxGeometry>
        </mxCell>
        <mxCell id="yZC3clbUCUtn4CxKW6aq-195" value="&lt;span style=&quot;font-size: 14px;&quot;&gt;Документ&lt;/span&gt;" style="shape=partialRectangle;html=1;whiteSpace=wrap;connectable=0;strokeColor=inherit;overflow=hidden;fillColor=none;top=0;left=0;bottom=0;right=0;pointerEvents=1;fontSize=16;" parent="yZC3clbUCUtn4CxKW6aq-193" vertex="1">
          <mxGeometry x="103" width="104" height="60" as="geometry">
            <mxRectangle width="104" height="60" as="alternateBounds" />
          </mxGeometry>
        </mxCell>
        <mxCell id="yZC3clbUCUtn4CxKW6aq-196" value="&lt;span style=&quot;font-size: 14px;&quot;&gt;Бухгалтер&lt;/span&gt;&lt;div&gt;&lt;span style=&quot;font-size: 14px;&quot;&gt;и кассир&lt;/span&gt;&lt;/div&gt;" style="shape=partialRectangle;html=1;whiteSpace=wrap;connectable=0;strokeColor=inherit;overflow=hidden;fillColor=none;top=0;left=0;bottom=0;right=0;pointerEvents=1;fontSize=16;" parent="yZC3clbUCUtn4CxKW6aq-193" vertex="1">
          <mxGeometry x="207" width="103" height="60" as="geometry">
            <mxRectangle width="103" height="60" as="alternateBounds" />
          </mxGeometry>
        </mxCell>
        <mxCell id="yZC3clbUCUtn4CxKW6aq-197" value="" style="shape=tableRow;horizontal=0;startSize=0;swimlaneHead=0;swimlaneBody=0;strokeColor=inherit;top=0;left=0;bottom=0;right=0;collapsible=0;dropTarget=0;fillColor=none;points=[[0,0.5],[1,0.5]];portConstraint=eastwest;fontSize=16;" parent="yZC3clbUCUtn4CxKW6aq-188" vertex="1">
          <mxGeometry y="120" width="310" height="60" as="geometry" />
        </mxCell>
        <mxCell id="yZC3clbUCUtn4CxKW6aq-198" value="&lt;font style=&quot;font-size: 11px;&quot;&gt;Отчёт о количестве продуктов&lt;/font&gt;&lt;div&gt;&lt;font style=&quot;font-size: 11px;&quot;&gt;на складе&lt;/font&gt;&lt;/div&gt;" style="shape=partialRectangle;html=1;whiteSpace=wrap;connectable=0;strokeColor=inherit;overflow=hidden;fillColor=none;top=0;left=0;bottom=0;right=0;pointerEvents=1;fontSize=16;" parent="yZC3clbUCUtn4CxKW6aq-197" vertex="1">
          <mxGeometry width="103" height="60" as="geometry">
            <mxRectangle width="103" height="60" as="alternateBounds" />
          </mxGeometry>
        </mxCell>
        <mxCell id="yZC3clbUCUtn4CxKW6aq-199" value="&lt;span style=&quot;font-size: 14px;&quot;&gt;Документ&lt;/span&gt;" style="shape=partialRectangle;html=1;whiteSpace=wrap;connectable=0;strokeColor=inherit;overflow=hidden;fillColor=none;top=0;left=0;bottom=0;right=0;pointerEvents=1;fontSize=16;" parent="yZC3clbUCUtn4CxKW6aq-197" vertex="1">
          <mxGeometry x="103" width="104" height="60" as="geometry">
            <mxRectangle width="104" height="60" as="alternateBounds" />
          </mxGeometry>
        </mxCell>
        <mxCell id="yZC3clbUCUtn4CxKW6aq-200" value="&lt;span style=&quot;font-size: 14px;&quot;&gt;Бухгалтер&lt;/span&gt;&lt;div&gt;&lt;span style=&quot;font-size: 14px;&quot;&gt;и работник&lt;/span&gt;&lt;/div&gt;&lt;div&gt;&lt;span style=&quot;font-size: 14px;&quot;&gt;кухни&lt;/span&gt;&lt;/div&gt;" style="shape=partialRectangle;html=1;whiteSpace=wrap;connectable=0;strokeColor=inherit;overflow=hidden;fillColor=none;top=0;left=0;bottom=0;right=0;pointerEvents=1;fontSize=16;" parent="yZC3clbUCUtn4CxKW6aq-197" vertex="1">
          <mxGeometry x="207" width="103" height="60" as="geometry">
            <mxRectangle width="103" height="60" as="alternateBounds" />
          </mxGeometry>
        </mxCell>
        <mxCell id="yZC3clbUCUtn4CxKW6aq-201" value="" style="shape=tableRow;horizontal=0;startSize=0;swimlaneHead=0;swimlaneBody=0;strokeColor=inherit;top=0;left=0;bottom=0;right=0;collapsible=0;dropTarget=0;fillColor=none;points=[[0,0.5],[1,0.5]];portConstraint=eastwest;fontSize=16;" parent="yZC3clbUCUtn4CxKW6aq-188" vertex="1">
          <mxGeometry y="180" width="310" height="60" as="geometry" />
        </mxCell>
        <mxCell id="yZC3clbUCUtn4CxKW6aq-202" value="&lt;span style=&quot;font-size: 14px;&quot;&gt;Отчёт&lt;/span&gt;&lt;div&gt;&lt;span style=&quot;font-size: 14px;&quot;&gt;о зарплатах&lt;/span&gt;&lt;/div&gt;" style="shape=partialRectangle;html=1;whiteSpace=wrap;connectable=0;strokeColor=inherit;overflow=hidden;fillColor=none;top=0;left=0;bottom=0;right=0;pointerEvents=1;fontSize=16;" parent="yZC3clbUCUtn4CxKW6aq-201" vertex="1">
          <mxGeometry width="103" height="60" as="geometry">
            <mxRectangle width="103" height="60" as="alternateBounds" />
          </mxGeometry>
        </mxCell>
        <mxCell id="yZC3clbUCUtn4CxKW6aq-203" value="&lt;span style=&quot;font-size: 14px;&quot;&gt;Документ&lt;/span&gt;" style="shape=partialRectangle;html=1;whiteSpace=wrap;connectable=0;strokeColor=inherit;overflow=hidden;fillColor=none;top=0;left=0;bottom=0;right=0;pointerEvents=1;fontSize=16;" parent="yZC3clbUCUtn4CxKW6aq-201" vertex="1">
          <mxGeometry x="103" width="104" height="60" as="geometry">
            <mxRectangle width="104" height="60" as="alternateBounds" />
          </mxGeometry>
        </mxCell>
        <mxCell id="yZC3clbUCUtn4CxKW6aq-204" value="&lt;span style=&quot;font-size: 14px;&quot;&gt;Бухгалтер&lt;/span&gt;" style="shape=partialRectangle;html=1;whiteSpace=wrap;connectable=0;strokeColor=inherit;overflow=hidden;fillColor=none;top=0;left=0;bottom=0;right=0;pointerEvents=1;fontSize=16;" parent="yZC3clbUCUtn4CxKW6aq-201" vertex="1">
          <mxGeometry x="207" width="103" height="60" as="geometry">
            <mxRectangle width="103" height="60" as="alternateBounds" />
          </mxGeometry>
        </mxCell>
        <mxCell id="yZC3clbUCUtn4CxKW6aq-205" value="" style="shape=table;startSize=0;container=1;collapsible=0;childLayout=tableLayout;fontSize=16;" parent="1" vertex="1">
          <mxGeometry x="27.5" y="1640" width="330" height="240" as="geometry" />
        </mxCell>
        <mxCell id="yZC3clbUCUtn4CxKW6aq-206" value="" style="shape=tableRow;horizontal=0;startSize=0;swimlaneHead=0;swimlaneBody=0;strokeColor=inherit;top=0;left=0;bottom=0;right=0;collapsible=0;dropTarget=0;fillColor=none;points=[[0,0.5],[1,0.5]];portConstraint=eastwest;fontSize=16;" parent="yZC3clbUCUtn4CxKW6aq-205" vertex="1">
          <mxGeometry width="330" height="60" as="geometry" />
        </mxCell>
        <mxCell id="yZC3clbUCUtn4CxKW6aq-207" value="&lt;font style=&quot;font-size: 14px;&quot;&gt;Корреспондент&lt;/font&gt;" style="shape=partialRectangle;html=1;whiteSpace=wrap;connectable=0;strokeColor=inherit;overflow=hidden;fillColor=none;top=0;left=0;bottom=0;right=0;pointerEvents=1;fontSize=16;" parent="yZC3clbUCUtn4CxKW6aq-206" vertex="1">
          <mxGeometry width="110" height="60" as="geometry">
            <mxRectangle width="110" height="60" as="alternateBounds" />
          </mxGeometry>
        </mxCell>
        <mxCell id="yZC3clbUCUtn4CxKW6aq-208" value="&lt;div&gt;&lt;font style=&quot;font-size: 14px;&quot;&gt;&lt;br&gt;&lt;/font&gt;&lt;/div&gt;&lt;div&gt;&lt;font style=&quot;font-size: 14px;&quot;&gt;Трудозатраты&lt;/font&gt;&lt;/div&gt;" style="shape=partialRectangle;html=1;whiteSpace=wrap;connectable=0;strokeColor=inherit;overflow=hidden;fillColor=none;top=0;left=0;bottom=0;right=0;pointerEvents=1;fontSize=16;" parent="yZC3clbUCUtn4CxKW6aq-206" vertex="1">
          <mxGeometry x="110" width="110" height="60" as="geometry">
            <mxRectangle width="110" height="60" as="alternateBounds" />
          </mxGeometry>
        </mxCell>
        <mxCell id="yZC3clbUCUtn4CxKW6aq-209" value="&lt;div&gt;&lt;font style=&quot;font-size: 14px;&quot;&gt;&lt;br&gt;&lt;/font&gt;&lt;/div&gt;&lt;font style=&quot;font-size: 14px;&quot;&gt;Периодичность&lt;/font&gt;" style="shape=partialRectangle;html=1;whiteSpace=wrap;connectable=0;strokeColor=inherit;overflow=hidden;fillColor=none;top=0;left=0;bottom=0;right=0;pointerEvents=1;fontSize=16;" parent="yZC3clbUCUtn4CxKW6aq-206" vertex="1">
          <mxGeometry x="220" width="110" height="60" as="geometry">
            <mxRectangle width="110" height="60" as="alternateBounds" />
          </mxGeometry>
        </mxCell>
        <mxCell id="yZC3clbUCUtn4CxKW6aq-210" value="" style="shape=tableRow;horizontal=0;startSize=0;swimlaneHead=0;swimlaneBody=0;strokeColor=inherit;top=0;left=0;bottom=0;right=0;collapsible=0;dropTarget=0;fillColor=none;points=[[0,0.5],[1,0.5]];portConstraint=eastwest;fontSize=16;" parent="yZC3clbUCUtn4CxKW6aq-205" vertex="1">
          <mxGeometry y="60" width="330" height="60" as="geometry" />
        </mxCell>
        <mxCell id="yZC3clbUCUtn4CxKW6aq-211" value="&lt;span style=&quot;font-size: 14px;&quot;&gt;Предприятие&lt;/span&gt;" style="shape=partialRectangle;html=1;whiteSpace=wrap;connectable=0;strokeColor=inherit;overflow=hidden;fillColor=none;top=0;left=0;bottom=0;right=0;pointerEvents=1;fontSize=16;" parent="yZC3clbUCUtn4CxKW6aq-210" vertex="1">
          <mxGeometry width="110" height="60" as="geometry">
            <mxRectangle width="110" height="60" as="alternateBounds" />
          </mxGeometry>
        </mxCell>
        <mxCell id="yZC3clbUCUtn4CxKW6aq-212" value="&lt;font style=&quot;font-size: 14px;&quot;&gt;1,5 чел.ч&lt;/font&gt;" style="shape=partialRectangle;html=1;whiteSpace=wrap;connectable=0;strokeColor=inherit;overflow=hidden;fillColor=none;top=0;left=0;bottom=0;right=0;pointerEvents=1;fontSize=16;" parent="yZC3clbUCUtn4CxKW6aq-210" vertex="1">
          <mxGeometry x="110" width="110" height="60" as="geometry">
            <mxRectangle width="110" height="60" as="alternateBounds" />
          </mxGeometry>
        </mxCell>
        <mxCell id="yZC3clbUCUtn4CxKW6aq-213" value="&lt;font style=&quot;font-size: 14px;&quot;&gt;Каждый день&lt;/font&gt;&lt;div&gt;&lt;font style=&quot;font-size: 14px;&quot;&gt;с 13:00 до 14:30&lt;/font&gt;&lt;/div&gt;" style="shape=partialRectangle;html=1;whiteSpace=wrap;connectable=0;strokeColor=inherit;overflow=hidden;fillColor=none;top=0;left=0;bottom=0;right=0;pointerEvents=1;fontSize=16;" parent="yZC3clbUCUtn4CxKW6aq-210" vertex="1">
          <mxGeometry x="220" width="110" height="60" as="geometry">
            <mxRectangle width="110" height="60" as="alternateBounds" />
          </mxGeometry>
        </mxCell>
        <mxCell id="yZC3clbUCUtn4CxKW6aq-214" value="" style="shape=tableRow;horizontal=0;startSize=0;swimlaneHead=0;swimlaneBody=0;strokeColor=inherit;top=0;left=0;bottom=0;right=0;collapsible=0;dropTarget=0;fillColor=none;points=[[0,0.5],[1,0.5]];portConstraint=eastwest;fontSize=16;" parent="yZC3clbUCUtn4CxKW6aq-205" vertex="1">
          <mxGeometry y="120" width="330" height="60" as="geometry" />
        </mxCell>
        <mxCell id="yZC3clbUCUtn4CxKW6aq-215" value="&lt;span style=&quot;font-size: 14px;&quot;&gt;Предприятие&lt;/span&gt;" style="shape=partialRectangle;html=1;whiteSpace=wrap;connectable=0;strokeColor=inherit;overflow=hidden;fillColor=none;top=0;left=0;bottom=0;right=0;pointerEvents=1;fontSize=16;" parent="yZC3clbUCUtn4CxKW6aq-214" vertex="1">
          <mxGeometry width="110" height="60" as="geometry">
            <mxRectangle width="110" height="60" as="alternateBounds" />
          </mxGeometry>
        </mxCell>
        <mxCell id="yZC3clbUCUtn4CxKW6aq-216" value="&lt;span style=&quot;font-size: 14px;&quot;&gt;1,5 чел.ч&lt;/span&gt;" style="shape=partialRectangle;html=1;whiteSpace=wrap;connectable=0;strokeColor=inherit;overflow=hidden;fillColor=none;top=0;left=0;bottom=0;right=0;pointerEvents=1;fontSize=16;" parent="yZC3clbUCUtn4CxKW6aq-214" vertex="1">
          <mxGeometry x="110" width="110" height="60" as="geometry">
            <mxRectangle width="110" height="60" as="alternateBounds" />
          </mxGeometry>
        </mxCell>
        <mxCell id="yZC3clbUCUtn4CxKW6aq-217" value="&lt;font style=&quot;font-size: 14px;&quot;&gt;Каждый день&lt;/font&gt;&lt;div&gt;&lt;font style=&quot;font-size: 14px;&quot;&gt;с 14:30 до 16:00&lt;/font&gt;&lt;/div&gt;" style="shape=partialRectangle;html=1;whiteSpace=wrap;connectable=0;strokeColor=inherit;overflow=hidden;fillColor=none;top=0;left=0;bottom=0;right=0;pointerEvents=1;fontSize=16;" parent="yZC3clbUCUtn4CxKW6aq-214" vertex="1">
          <mxGeometry x="220" width="110" height="60" as="geometry">
            <mxRectangle width="110" height="60" as="alternateBounds" />
          </mxGeometry>
        </mxCell>
        <mxCell id="yZC3clbUCUtn4CxKW6aq-218" value="" style="shape=tableRow;horizontal=0;startSize=0;swimlaneHead=0;swimlaneBody=0;strokeColor=inherit;top=0;left=0;bottom=0;right=0;collapsible=0;dropTarget=0;fillColor=none;points=[[0,0.5],[1,0.5]];portConstraint=eastwest;fontSize=16;" parent="yZC3clbUCUtn4CxKW6aq-205" vertex="1">
          <mxGeometry y="180" width="330" height="60" as="geometry" />
        </mxCell>
        <mxCell id="yZC3clbUCUtn4CxKW6aq-219" value="&lt;span style=&quot;font-size: 14px;&quot;&gt;Предприятие&lt;/span&gt;" style="shape=partialRectangle;html=1;whiteSpace=wrap;connectable=0;strokeColor=inherit;overflow=hidden;fillColor=none;top=0;left=0;bottom=0;right=0;pointerEvents=1;fontSize=16;" parent="yZC3clbUCUtn4CxKW6aq-218" vertex="1">
          <mxGeometry width="110" height="60" as="geometry">
            <mxRectangle width="110" height="60" as="alternateBounds" />
          </mxGeometry>
        </mxCell>
        <mxCell id="yZC3clbUCUtn4CxKW6aq-220" value="&lt;span style=&quot;font-size: 14px;&quot;&gt;1 чел.ч&lt;/span&gt;" style="shape=partialRectangle;html=1;whiteSpace=wrap;connectable=0;strokeColor=inherit;overflow=hidden;fillColor=none;top=0;left=0;bottom=0;right=0;pointerEvents=1;fontSize=16;" parent="yZC3clbUCUtn4CxKW6aq-218" vertex="1">
          <mxGeometry x="110" width="110" height="60" as="geometry">
            <mxRectangle width="110" height="60" as="alternateBounds" />
          </mxGeometry>
        </mxCell>
        <mxCell id="yZC3clbUCUtn4CxKW6aq-221" value="&lt;font style=&quot;font-size: 14px;&quot;&gt;Каждый день&lt;/font&gt;&lt;div&gt;&lt;font style=&quot;font-size: 14px;&quot;&gt;с 16:00 до 17:00&lt;/font&gt;&lt;/div&gt;" style="shape=partialRectangle;html=1;whiteSpace=wrap;connectable=0;strokeColor=inherit;overflow=hidden;fillColor=none;top=0;left=0;bottom=0;right=0;pointerEvents=1;fontSize=16;" parent="yZC3clbUCUtn4CxKW6aq-218" vertex="1">
          <mxGeometry x="220" width="110" height="60" as="geometry">
            <mxRectangle width="110" height="60" as="alternateBounds" />
          </mxGeometry>
        </mxCell>
        <mxCell id="yZC3clbUCUtn4CxKW6aq-222" value="&lt;font style=&quot;font-size: 14px;&quot;&gt;Характеристики обработки&lt;/font&gt;" style="shape=ext;double=1;rounded=0;whiteSpace=wrap;html=1;" parent="1" vertex="1">
          <mxGeometry x="137.5" y="1640" width="220" height="30" as="geometry" />
        </mxCell>
        <mxCell id="yZC3clbUCUtn4CxKW6aq-223" value="Реестр выходных информационных потоков" style="text;strokeColor=none;fillColor=none;html=1;fontSize=24;fontStyle=1;verticalAlign=middle;align=center;" parent="1" vertex="1">
          <mxGeometry x="-13.5" y="1600" width="100" height="40" as="geometry" />
        </mxCell>
        <mxCell id="yZC3clbUCUtn4CxKW6aq-224" value="Работник кухни" style="shape=umlActor;verticalLabelPosition=bottom;verticalAlign=top;html=1;" parent="1" vertex="1">
          <mxGeometry x="-270" y="2200" width="30" height="60" as="geometry" />
        </mxCell>
        <mxCell id="yZC3clbUCUtn4CxKW6aq-225" value="Приготовление блюд" style="ellipse;whiteSpace=wrap;html=1;" parent="1" vertex="1">
          <mxGeometry x="-128.5" y="2340" width="130" height="60" as="geometry" />
        </mxCell>
        <mxCell id="yZC3clbUCUtn4CxKW6aq-226" value="Бухгалтер" style="shape=umlActor;verticalLabelPosition=bottom;verticalAlign=top;html=1;" parent="1" vertex="1">
          <mxGeometry x="192.5" y="2080" width="30" height="60" as="geometry" />
        </mxCell>
        <mxCell id="yZC3clbUCUtn4CxKW6aq-227" value="Работник на раздаче" style="shape=umlActor;verticalLabelPosition=bottom;verticalAlign=top;html=1;" parent="1" vertex="1">
          <mxGeometry x="275" y="2380" width="30" height="60" as="geometry" />
        </mxCell>
        <mxCell id="yZC3clbUCUtn4CxKW6aq-228" value="Кассир" style="shape=umlActor;verticalLabelPosition=bottom;verticalAlign=top;html=1;" parent="1" vertex="1">
          <mxGeometry x="612.5" y="2260" width="30" height="60" as="geometry" />
        </mxCell>
        <mxCell id="yZC3clbUCUtn4CxKW6aq-229" value="Клиент" style="shape=umlActor;verticalLabelPosition=bottom;verticalAlign=top;html=1;" parent="1" vertex="1">
          <mxGeometry x="-537" y="2200" width="30" height="60" as="geometry" />
        </mxCell>
        <mxCell id="yZC3clbUCUtn4CxKW6aq-230" value="Работа с поставками" style="ellipse;whiteSpace=wrap;html=1;" parent="1" vertex="1">
          <mxGeometry x="-128.5" y="2210" width="130" height="60" as="geometry" />
        </mxCell>
        <mxCell id="yZC3clbUCUtn4CxKW6aq-231" value="Оформление заказа&lt;div&gt;клиента&lt;/div&gt;" style="ellipse;whiteSpace=wrap;html=1;" parent="1" vertex="1">
          <mxGeometry x="382.5" y="2210" width="135" height="60" as="geometry" />
        </mxCell>
        <mxCell id="yZC3clbUCUtn4CxKW6aq-232" value="Оформление&lt;div&gt;списка работников&lt;/div&gt;" style="ellipse;whiteSpace=wrap;html=1;" parent="1" vertex="1">
          <mxGeometry x="222.5" y="2210" width="135" height="60" as="geometry" />
        </mxCell>
        <mxCell id="yZC3clbUCUtn4CxKW6aq-233" value="Формирование отчёта&lt;div&gt;о зарплатах&lt;/div&gt;" style="ellipse;whiteSpace=wrap;html=1;" parent="1" vertex="1">
          <mxGeometry x="42.5" y="2210" width="150" height="60" as="geometry" />
        </mxCell>
        <mxCell id="yZC3clbUCUtn4CxKW6aq-237" value="Получение заказа" style="ellipse;whiteSpace=wrap;html=1;" parent="1" vertex="1">
          <mxGeometry x="-447" y="2270" width="135" height="60" as="geometry" />
        </mxCell>
        <mxCell id="yZC3clbUCUtn4CxKW6aq-240" value="Получение данных о заказе" style="ellipse;whiteSpace=wrap;html=1;" parent="1" vertex="1">
          <mxGeometry x="387.5" y="2460" width="135" height="60" as="geometry" />
        </mxCell>
        <mxCell id="yZC3clbUCUtn4CxKW6aq-241" value="Создание заказа" style="ellipse;whiteSpace=wrap;html=1;" parent="1" vertex="1">
          <mxGeometry x="-447" y="2160" width="135" height="60" as="geometry" />
        </mxCell>
        <mxCell id="yZC3clbUCUtn4CxKW6aq-242" value="Выдача блюд&lt;div&gt;клиентам&lt;/div&gt;" style="ellipse;whiteSpace=wrap;html=1;" parent="1" vertex="1">
          <mxGeometry x="387.5" y="2340" width="130" height="60" as="geometry" />
        </mxCell>
        <mxCell id="yZC3clbUCUtn4CxKW6aq-243" value="Внесение информации о количестве продуктов на складе" style="ellipse;whiteSpace=wrap;html=1;" parent="1" vertex="1">
          <mxGeometry x="-147.5" y="2080" width="175" height="70" as="geometry" />
        </mxCell>
        <mxCell id="yZC3clbUCUtn4CxKW6aq-244" value="Введение журнала&lt;div&gt;заказов&lt;/div&gt;" style="ellipse;whiteSpace=wrap;html=1;" parent="1" vertex="1">
          <mxGeometry x="385" y="2080" width="130" height="60" as="geometry" />
        </mxCell>
        <mxCell id="yZC3clbUCUtn4CxKW6aq-247" value="" style="endArrow=none;html=1;rounded=0;entryX=0.066;entryY=0.76;entryDx=0;entryDy=0;entryPerimeter=0;" parent="1" target="yZC3clbUCUtn4CxKW6aq-241" edge="1">
          <mxGeometry width="50" height="50" relative="1" as="geometry">
            <mxPoint x="-504.5" y="2230" as="sourcePoint" />
            <mxPoint x="-4.5" y="2220" as="targetPoint" />
          </mxGeometry>
        </mxCell>
        <mxCell id="yZC3clbUCUtn4CxKW6aq-248" value="" style="endArrow=none;html=1;rounded=0;" parent="1" target="yZC3clbUCUtn4CxKW6aq-237" edge="1">
          <mxGeometry width="50" height="50" relative="1" as="geometry">
            <mxPoint x="-504.5" y="2240" as="sourcePoint" />
            <mxPoint x="-428.5" y="2216" as="targetPoint" />
          </mxGeometry>
        </mxCell>
        <mxCell id="yZC3clbUCUtn4CxKW6aq-250" value="" style="endArrow=none;html=1;rounded=0;" parent="1" target="yZC3clbUCUtn4CxKW6aq-243" edge="1">
          <mxGeometry width="50" height="50" relative="1" as="geometry">
            <mxPoint x="-227.5" y="2210" as="sourcePoint" />
            <mxPoint x="152.5" y="2080" as="targetPoint" />
          </mxGeometry>
        </mxCell>
        <mxCell id="yZC3clbUCUtn4CxKW6aq-251" value="" style="endArrow=none;html=1;rounded=0;" parent="1" target="yZC3clbUCUtn4CxKW6aq-230" edge="1">
          <mxGeometry width="50" height="50" relative="1" as="geometry">
            <mxPoint x="-227.5" y="2230" as="sourcePoint" />
            <mxPoint x="-100.5" y="2194" as="targetPoint" />
          </mxGeometry>
        </mxCell>
        <mxCell id="yZC3clbUCUtn4CxKW6aq-252" value="" style="endArrow=none;html=1;rounded=0;" parent="1" target="yZC3clbUCUtn4CxKW6aq-225" edge="1">
          <mxGeometry width="50" height="50" relative="1" as="geometry">
            <mxPoint x="-227.5" y="2250" as="sourcePoint" />
            <mxPoint x="-107.5" y="2296" as="targetPoint" />
          </mxGeometry>
        </mxCell>
        <mxCell id="yZC3clbUCUtn4CxKW6aq-253" value="" style="endArrow=none;html=1;rounded=0;" parent="1" target="yZC3clbUCUtn4CxKW6aq-243" edge="1">
          <mxGeometry width="50" height="50" relative="1" as="geometry">
            <mxPoint x="182.5" y="2100" as="sourcePoint" />
            <mxPoint x="162.5" y="2130" as="targetPoint" />
          </mxGeometry>
        </mxCell>
        <mxCell id="yZC3clbUCUtn4CxKW6aq-254" value="" style="endArrow=none;html=1;rounded=0;" parent="1" target="yZC3clbUCUtn4CxKW6aq-244" edge="1">
          <mxGeometry width="50" height="50" relative="1" as="geometry">
            <mxPoint x="232.5" y="2100" as="sourcePoint" />
            <mxPoint x="322.5" y="2160" as="targetPoint" />
          </mxGeometry>
        </mxCell>
        <mxCell id="yZC3clbUCUtn4CxKW6aq-255" value="" style="endArrow=none;html=1;rounded=0;" parent="1" source="yZC3clbUCUtn4CxKW6aq-233" edge="1">
          <mxGeometry width="50" height="50" relative="1" as="geometry">
            <mxPoint x="172.5" y="2220" as="sourcePoint" />
            <mxPoint x="192.5" y="2170" as="targetPoint" />
          </mxGeometry>
        </mxCell>
        <mxCell id="yZC3clbUCUtn4CxKW6aq-256" value="" style="endArrow=none;html=1;rounded=0;" parent="1" target="yZC3clbUCUtn4CxKW6aq-232" edge="1">
          <mxGeometry width="50" height="50" relative="1" as="geometry">
            <mxPoint x="222.5" y="2170" as="sourcePoint" />
            <mxPoint x="322.5" y="2210" as="targetPoint" />
          </mxGeometry>
        </mxCell>
        <mxCell id="yZC3clbUCUtn4CxKW6aq-257" value="" style="endArrow=none;html=1;rounded=0;" parent="1" source="yZC3clbUCUtn4CxKW6aq-231" edge="1">
          <mxGeometry width="50" height="50" relative="1" as="geometry">
            <mxPoint x="272.5" y="2350" as="sourcePoint" />
            <mxPoint x="602.5" y="2280" as="targetPoint" />
          </mxGeometry>
        </mxCell>
        <mxCell id="yZC3clbUCUtn4CxKW6aq-258" value="" style="endArrow=none;html=1;rounded=0;" parent="1" source="yZC3clbUCUtn4CxKW6aq-244" edge="1">
          <mxGeometry width="50" height="50" relative="1" as="geometry">
            <mxPoint x="272.5" y="2350" as="sourcePoint" />
            <mxPoint x="602.5" y="2260" as="targetPoint" />
          </mxGeometry>
        </mxCell>
        <mxCell id="yZC3clbUCUtn4CxKW6aq-259" value="" style="endArrow=none;html=1;rounded=0;" parent="1" source="yZC3clbUCUtn4CxKW6aq-242" edge="1">
          <mxGeometry width="50" height="50" relative="1" as="geometry">
            <mxPoint x="272.5" y="2350" as="sourcePoint" />
            <mxPoint x="602.5" y="2300" as="targetPoint" />
          </mxGeometry>
        </mxCell>
        <mxCell id="yZC3clbUCUtn4CxKW6aq-260" value="" style="endArrow=none;html=1;rounded=0;" parent="1" target="yZC3clbUCUtn4CxKW6aq-242" edge="1">
          <mxGeometry width="50" height="50" relative="1" as="geometry">
            <mxPoint x="322.5" y="2400" as="sourcePoint" />
            <mxPoint x="322.5" y="2300" as="targetPoint" />
          </mxGeometry>
        </mxCell>
        <mxCell id="yZC3clbUCUtn4CxKW6aq-261" value="" style="endArrow=none;html=1;rounded=0;" parent="1" source="yZC3clbUCUtn4CxKW6aq-240" edge="1">
          <mxGeometry width="50" height="50" relative="1" as="geometry">
            <mxPoint x="272.5" y="2350" as="sourcePoint" />
            <mxPoint x="322.5" y="2420" as="targetPoint" />
          </mxGeometry>
        </mxCell>
        <mxCell id="yZC3clbUCUtn4CxKW6aq-262" value="" style="endArrow=none;html=1;rounded=0;" parent="1" source="yZC3clbUCUtn4CxKW6aq-240" edge="1">
          <mxGeometry width="50" height="50" relative="1" as="geometry">
            <mxPoint x="495.5" y="2354" as="sourcePoint" />
            <mxPoint x="602.5" y="2320" as="targetPoint" />
          </mxGeometry>
        </mxCell>
        <mxCell id="yZC3clbUCUtn4CxKW6aq-268" value="&lt;span style=&quot;font-size: 10px;&quot;&gt;Клиент&lt;/span&gt;&lt;br&gt;&lt;div&gt;&lt;span style=&quot;color: light-dark(rgb(0, 0, 0), rgb(255, 255, 255)); background-color: transparent; font-size: 10px;&quot;&gt;«&lt;/span&gt;&lt;span style=&quot;font-size: 10px;&quot;&gt;entity»&lt;/span&gt;&lt;br&gt;&lt;/div&gt;" style="swimlane;fontStyle=0;childLayout=stackLayout;horizontal=1;startSize=26;fillColor=none;horizontalStack=0;resizeParent=1;resizeParentMax=0;resizeLast=0;collapsible=1;marginBottom=0;whiteSpace=wrap;html=1;" parent="1" vertex="1">
          <mxGeometry x="310" y="2951" width="140" height="70" as="geometry" />
        </mxCell>
        <mxCell id="yZC3clbUCUtn4CxKW6aq-269" value="&lt;font style=&quot;font-size: 10px;&quot;&gt;ид_номер&lt;/font&gt;&lt;div&gt;&lt;font style=&quot;font-size: 10px;&quot;&gt;номер телефона&lt;/font&gt;&lt;/div&gt;" style="text;strokeColor=none;fillColor=none;align=left;verticalAlign=top;spacingLeft=4;spacingRight=4;overflow=hidden;rotatable=0;points=[[0,0.5],[1,0.5]];portConstraint=eastwest;whiteSpace=wrap;html=1;" parent="yZC3clbUCUtn4CxKW6aq-268" vertex="1">
          <mxGeometry y="26" width="140" height="44" as="geometry" />
        </mxCell>
        <mxCell id="yZC3clbUCUtn4CxKW6aq-272" value="&lt;font style=&quot;font-size: 10px;&quot;&gt;Работник&lt;/font&gt;&lt;div&gt;&lt;span style=&quot;color: light-dark(rgb(0, 0, 0), rgb(255, 255, 255)); background-color: transparent; font-size: 10px;&quot;&gt;«&lt;/span&gt;&lt;span style=&quot;font-size: 10px;&quot;&gt;entity»&lt;/span&gt;&lt;br&gt;&lt;/div&gt;" style="swimlane;fontStyle=0;childLayout=stackLayout;horizontal=1;startSize=26;fillColor=none;horizontalStack=0;resizeParent=1;resizeParentMax=0;resizeLast=0;collapsible=1;marginBottom=0;whiteSpace=wrap;html=1;direction=east;rotation=0;" parent="1" vertex="1">
          <mxGeometry x="45" y="2936" width="140" height="100" as="geometry">
            <mxRectangle x="-110" y="2880" width="90" height="40" as="alternateBounds" />
          </mxGeometry>
        </mxCell>
        <mxCell id="yZC3clbUCUtn4CxKW6aq-273" value="&lt;font style=&quot;font-size: 10px;&quot;&gt;ид_номер&lt;/font&gt;&lt;div&gt;&lt;font style=&quot;font-size: 10px;&quot;&gt;дата_рождения&lt;/font&gt;&lt;/div&gt;&lt;div&gt;&lt;font style=&quot;font-size: 10px;&quot;&gt;должность&lt;/font&gt;&lt;/div&gt;&lt;div&gt;&lt;font style=&quot;font-size: 10px;&quot;&gt;зарплата&lt;/font&gt;&lt;/div&gt;&lt;div&gt;&lt;font style=&quot;font-size: 10px;&quot;&gt;&lt;br&gt;&lt;/font&gt;&lt;/div&gt;" style="text;strokeColor=none;fillColor=none;align=left;verticalAlign=top;spacingLeft=4;spacingRight=4;overflow=hidden;rotatable=0;points=[[0,0.5],[1,0.5]];portConstraint=eastwest;whiteSpace=wrap;html=1;rotation=0;" parent="yZC3clbUCUtn4CxKW6aq-272" vertex="1">
          <mxGeometry y="26" width="140" height="74" as="geometry" />
        </mxCell>
        <mxCell id="yZC3clbUCUtn4CxKW6aq-282" value="&lt;span style=&quot;font-size: 10px;&quot;&gt;Человек&lt;/span&gt;&lt;br&gt;&lt;div&gt;&lt;span style=&quot;color: light-dark(rgb(0, 0, 0), rgb(255, 255, 255)); background-color: transparent; font-size: 10px;&quot;&gt;«&lt;/span&gt;&lt;span style=&quot;font-size: 10px;&quot;&gt;entity»&lt;/span&gt;&lt;br&gt;&lt;/div&gt;" style="swimlane;fontStyle=0;childLayout=stackLayout;horizontal=1;startSize=26;fillColor=none;horizontalStack=0;resizeParent=1;resizeParentMax=0;resizeLast=0;collapsible=1;marginBottom=0;whiteSpace=wrap;html=1;direction=east;rotation=0;" parent="1" vertex="1">
          <mxGeometry x="142.5" y="2780" width="140" height="90" as="geometry">
            <mxRectangle x="-110" y="2880" width="90" height="40" as="alternateBounds" />
          </mxGeometry>
        </mxCell>
        <mxCell id="yZC3clbUCUtn4CxKW6aq-283" value="&lt;span style=&quot;font-size: 10px;&quot;&gt;фамилия&lt;/span&gt;&lt;div&gt;&lt;span style=&quot;font-size: 10px;&quot;&gt;имя&lt;/span&gt;&lt;/div&gt;&lt;div&gt;&lt;span style=&quot;font-size: 10px;&quot;&gt;отчество&lt;/span&gt;&lt;/div&gt;" style="text;strokeColor=none;fillColor=none;align=left;verticalAlign=top;spacingLeft=4;spacingRight=4;overflow=hidden;rotatable=0;points=[[0,0.5],[1,0.5]];portConstraint=eastwest;whiteSpace=wrap;html=1;rotation=0;" parent="yZC3clbUCUtn4CxKW6aq-282" vertex="1">
          <mxGeometry y="26" width="140" height="64" as="geometry" />
        </mxCell>
        <mxCell id="yZC3clbUCUtn4CxKW6aq-284" value="&lt;span style=&quot;font-size: 10px;&quot;&gt;Заказ&lt;/span&gt;&lt;br&gt;&lt;div&gt;&lt;span style=&quot;color: light-dark(rgb(0, 0, 0), rgb(255, 255, 255)); background-color: transparent; font-size: 10px;&quot;&gt;«&lt;/span&gt;&lt;span style=&quot;font-size: 10px;&quot;&gt;entity»&lt;/span&gt;&lt;br&gt;&lt;/div&gt;" style="swimlane;fontStyle=0;childLayout=stackLayout;horizontal=1;startSize=26;fillColor=none;horizontalStack=0;resizeParent=1;resizeParentMax=0;resizeLast=0;collapsible=1;marginBottom=0;whiteSpace=wrap;html=1;" parent="1" vertex="1">
          <mxGeometry x="310" y="3160" width="140" height="100" as="geometry" />
        </mxCell>
        <mxCell id="yZC3clbUCUtn4CxKW6aq-285" value="&lt;font style=&quot;font-size: 10px;&quot;&gt;ид_номер&lt;/font&gt;&lt;div&gt;&lt;font style=&quot;font-size: 10px;&quot;&gt;дата_и_время_создания&lt;/font&gt;&lt;/div&gt;&lt;div&gt;&lt;br&gt;&lt;/div&gt;" style="text;strokeColor=none;fillColor=none;align=left;verticalAlign=top;spacingLeft=4;spacingRight=4;overflow=hidden;rotatable=0;points=[[0,0.5],[1,0.5]];portConstraint=eastwest;whiteSpace=wrap;html=1;" parent="yZC3clbUCUtn4CxKW6aq-284" vertex="1">
          <mxGeometry y="26" width="140" height="74" as="geometry" />
        </mxCell>
        <mxCell id="yZC3clbUCUtn4CxKW6aq-288" value="&lt;span style=&quot;font-size: 10px;&quot;&gt;Продукт&lt;/span&gt;&lt;br&gt;&lt;div&gt;&lt;span style=&quot;color: light-dark(rgb(0, 0, 0), rgb(255, 255, 255)); background-color: transparent; font-size: 10px;&quot;&gt;«&lt;/span&gt;&lt;span style=&quot;font-size: 10px;&quot;&gt;entity»&lt;/span&gt;&lt;br&gt;&lt;/div&gt;" style="swimlane;fontStyle=0;childLayout=stackLayout;horizontal=1;startSize=26;fillColor=none;horizontalStack=0;resizeParent=1;resizeParentMax=0;resizeLast=0;collapsible=1;marginBottom=0;whiteSpace=wrap;html=1;" parent="1" vertex="1">
          <mxGeometry x="-385" y="2901" width="140" height="130" as="geometry" />
        </mxCell>
        <mxCell id="yZC3clbUCUtn4CxKW6aq-289" value="&lt;font style=&quot;font-size: 10px;&quot;&gt;ид_номер&lt;/font&gt;&lt;div&gt;&lt;span style=&quot;font-size: 10px;&quot;&gt;название&lt;/span&gt;&lt;/div&gt;&lt;div&gt;&lt;span style=&quot;font-size: 10px;&quot;&gt;поставщик&lt;/span&gt;&lt;/div&gt;&lt;div&gt;&lt;font style=&quot;font-size: 10px;&quot;&gt;цена&lt;/font&gt;&lt;/div&gt;&lt;div&gt;&lt;font style=&quot;font-size: 10px;&quot;&gt;количество&lt;/font&gt;&lt;/div&gt;" style="text;strokeColor=none;fillColor=none;align=left;verticalAlign=top;spacingLeft=4;spacingRight=4;overflow=hidden;rotatable=0;points=[[0,0.5],[1,0.5]];portConstraint=eastwest;whiteSpace=wrap;html=1;" parent="yZC3clbUCUtn4CxKW6aq-288" vertex="1">
          <mxGeometry y="26" width="140" height="104" as="geometry" />
        </mxCell>
        <mxCell id="yZC3clbUCUtn4CxKW6aq-397" value="&lt;span style=&quot;font-size: 10px;&quot;&gt;Блюдо&lt;/span&gt;&lt;br&gt;&lt;div&gt;&lt;span style=&quot;color: light-dark(rgb(0, 0, 0), rgb(255, 255, 255)); background-color: transparent; font-size: 10px;&quot;&gt;«&lt;/span&gt;&lt;span style=&quot;font-size: 10px;&quot;&gt;entity»&lt;/span&gt;&lt;br&gt;&lt;/div&gt;" style="swimlane;fontStyle=0;childLayout=stackLayout;horizontal=1;startSize=26;fillColor=none;horizontalStack=0;resizeParent=1;resizeParentMax=0;resizeLast=0;collapsible=1;marginBottom=0;whiteSpace=wrap;html=1;" parent="1" vertex="1">
          <mxGeometry x="-385" y="3130" width="140" height="120" as="geometry" />
        </mxCell>
        <mxCell id="yZC3clbUCUtn4CxKW6aq-398" value="&lt;font style=&quot;font-size: 10px;&quot;&gt;ид_номер&lt;/font&gt;&lt;div&gt;&lt;span style=&quot;font-size: 10px;&quot;&gt;название&lt;/span&gt;&lt;/div&gt;&lt;div&gt;&lt;span style=&quot;font-size: 10px;&quot;&gt;масса_порции&lt;/span&gt;&lt;/div&gt;&lt;div&gt;&lt;font style=&quot;font-size: 10px;&quot;&gt;цена&lt;/font&gt;&lt;/div&gt;" style="text;strokeColor=none;fillColor=none;align=left;verticalAlign=top;spacingLeft=4;spacingRight=4;overflow=hidden;rotatable=0;points=[[0,0.5],[1,0.5]];portConstraint=eastwest;whiteSpace=wrap;html=1;" parent="yZC3clbUCUtn4CxKW6aq-397" vertex="1">
          <mxGeometry y="26" width="140" height="94" as="geometry" />
        </mxCell>
        <mxCell id="yZC3clbUCUtn4CxKW6aq-399" value="&lt;span style=&quot;font-size: 10px;&quot;&gt;Меню&lt;/span&gt;&lt;br&gt;&lt;div&gt;&lt;span style=&quot;color: light-dark(rgb(0, 0, 0), rgb(255, 255, 255)); background-color: transparent; font-size: 10px;&quot;&gt;«&lt;/span&gt;&lt;span style=&quot;font-size: 10px;&quot;&gt;entity»&lt;/span&gt;&lt;br&gt;&lt;/div&gt;" style="swimlane;fontStyle=0;childLayout=stackLayout;horizontal=1;startSize=26;fillColor=none;horizontalStack=0;resizeParent=1;resizeParentMax=0;resizeLast=0;collapsible=1;marginBottom=0;whiteSpace=wrap;html=1;" parent="1" vertex="1">
          <mxGeometry x="-83.5" y="3100" width="140" height="90" as="geometry" />
        </mxCell>
        <mxCell id="yZC3clbUCUtn4CxKW6aq-400" value="&lt;font style=&quot;font-size: 10px;&quot;&gt;ид_номер&lt;/font&gt;&lt;div&gt;&lt;span style=&quot;font-size: 10px;&quot;&gt;тип&lt;/span&gt;&lt;/div&gt;&lt;div&gt;&lt;br&gt;&lt;/div&gt;" style="text;strokeColor=none;fillColor=none;align=left;verticalAlign=top;spacingLeft=4;spacingRight=4;overflow=hidden;rotatable=0;points=[[0,0.5],[1,0.5]];portConstraint=eastwest;whiteSpace=wrap;html=1;" parent="yZC3clbUCUtn4CxKW6aq-399" vertex="1">
          <mxGeometry y="26" width="140" height="64" as="geometry" />
        </mxCell>
        <mxCell id="yZC3clbUCUtn4CxKW6aq-405" value="" style="endArrow=block;endSize=16;endFill=0;html=1;rounded=0;" parent="1" source="yZC3clbUCUtn4CxKW6aq-272" target="yZC3clbUCUtn4CxKW6aq-283" edge="1">
          <mxGeometry width="160" relative="1" as="geometry">
            <mxPoint x="90" y="2930" as="sourcePoint" />
            <mxPoint x="250" y="2930" as="targetPoint" />
          </mxGeometry>
        </mxCell>
        <mxCell id="yZC3clbUCUtn4CxKW6aq-406" value="" style="endArrow=block;endSize=16;endFill=0;html=1;rounded=0;" parent="1" source="yZC3clbUCUtn4CxKW6aq-268" target="yZC3clbUCUtn4CxKW6aq-283" edge="1">
          <mxGeometry width="160" relative="1" as="geometry">
            <mxPoint x="90" y="2930" as="sourcePoint" />
            <mxPoint x="250" y="2930" as="targetPoint" />
          </mxGeometry>
        </mxCell>
        <mxCell id="yZC3clbUCUtn4CxKW6aq-427" value="Содержит" style="endArrow=open;html=1;endSize=12;startArrow=diamondThin;startSize=14;startFill=0;edgeStyle=orthogonalEdgeStyle;rounded=0;" parent="1" source="yZC3clbUCUtn4CxKW6aq-397" target="yZC3clbUCUtn4CxKW6aq-288" edge="1">
          <mxGeometry relative="1" as="geometry">
            <mxPoint x="-40" y="3010" as="sourcePoint" />
            <mxPoint x="120" y="3010" as="targetPoint" />
          </mxGeometry>
        </mxCell>
        <mxCell id="yZC3clbUCUtn4CxKW6aq-428" value="1..*" style="edgeLabel;resizable=0;html=1;align=left;verticalAlign=top;" parent="yZC3clbUCUtn4CxKW6aq-427" connectable="0" vertex="1">
          <mxGeometry x="-1" relative="1" as="geometry">
            <mxPoint x="35" y="-30" as="offset" />
          </mxGeometry>
        </mxCell>
        <mxCell id="yZC3clbUCUtn4CxKW6aq-429" value="1..*" style="edgeLabel;resizable=0;html=1;align=right;verticalAlign=top;" parent="yZC3clbUCUtn4CxKW6aq-427" connectable="0" vertex="1">
          <mxGeometry x="1" relative="1" as="geometry">
            <mxPoint x="-35" as="offset" />
          </mxGeometry>
        </mxCell>
        <mxCell id="yZC3clbUCUtn4CxKW6aq-433" value="Включает" style="endArrow=open;html=1;endSize=12;startArrow=diamondThin;startSize=14;startFill=0;rounded=0;" parent="1" source="yZC3clbUCUtn4CxKW6aq-399" target="yZC3clbUCUtn4CxKW6aq-397" edge="1">
          <mxGeometry relative="1" as="geometry">
            <mxPoint x="-40" y="3010" as="sourcePoint" />
            <mxPoint x="120" y="3010" as="targetPoint" />
          </mxGeometry>
        </mxCell>
        <mxCell id="yZC3clbUCUtn4CxKW6aq-434" value="1" style="edgeLabel;resizable=0;html=1;align=left;verticalAlign=top;" parent="yZC3clbUCUtn4CxKW6aq-433" connectable="0" vertex="1">
          <mxGeometry x="-1" relative="1" as="geometry">
            <mxPoint x="-21" y="10" as="offset" />
          </mxGeometry>
        </mxCell>
        <mxCell id="yZC3clbUCUtn4CxKW6aq-435" value="1..*" style="edgeLabel;resizable=0;html=1;align=right;verticalAlign=top;" parent="yZC3clbUCUtn4CxKW6aq-433" connectable="0" vertex="1">
          <mxGeometry x="1" relative="1" as="geometry">
            <mxPoint x="25" as="offset" />
          </mxGeometry>
        </mxCell>
        <mxCell id="yZC3clbUCUtn4CxKW6aq-453" value="Делает" style="endArrow=block;endFill=1;html=1;edgeStyle=orthogonalEdgeStyle;align=left;verticalAlign=top;rounded=0;" parent="1" source="yZC3clbUCUtn4CxKW6aq-268" target="yZC3clbUCUtn4CxKW6aq-284" edge="1">
          <mxGeometry x="-0.2766" y="-20" relative="1" as="geometry">
            <mxPoint x="225" y="3026" as="sourcePoint" />
            <mxPoint x="385" y="3026" as="targetPoint" />
            <mxPoint as="offset" />
          </mxGeometry>
        </mxCell>
        <mxCell id="yZC3clbUCUtn4CxKW6aq-454" value="1..*" style="edgeLabel;resizable=0;html=1;align=left;verticalAlign=bottom;" parent="yZC3clbUCUtn4CxKW6aq-453" connectable="0" vertex="1">
          <mxGeometry x="-1" relative="1" as="geometry">
            <mxPoint x="-22" y="24" as="offset" />
          </mxGeometry>
        </mxCell>
        <mxCell id="yZC3clbUCUtn4CxKW6aq-455" value="0..*" style="edgeLabel;resizable=0;html=1;align=left;verticalAlign=bottom;" parent="1" connectable="0" vertex="1">
          <mxGeometry x="387.4999999999998" y="3150.0000000000005" as="geometry" />
        </mxCell>
        <mxCell id="yZC3clbUCUtn4CxKW6aq-465" value="Готовит" style="endArrow=block;endFill=1;html=1;align=left;verticalAlign=top;rounded=0;entryX=1.007;entryY=0.158;entryDx=0;entryDy=0;entryPerimeter=0;" parent="1" source="yZC3clbUCUtn4CxKW6aq-272" target="yZC3clbUCUtn4CxKW6aq-397" edge="1">
          <mxGeometry x="-0.041" y="-21" relative="1" as="geometry">
            <mxPoint x="40" y="3000" as="sourcePoint" />
            <mxPoint x="-220" y="3100" as="targetPoint" />
            <mxPoint as="offset" />
          </mxGeometry>
        </mxCell>
        <mxCell id="yZC3clbUCUtn4CxKW6aq-466" value="1..*" style="edgeLabel;resizable=0;html=1;align=left;verticalAlign=bottom;" parent="yZC3clbUCUtn4CxKW6aq-465" connectable="0" vertex="1">
          <mxGeometry x="-1" relative="1" as="geometry">
            <mxPoint x="-26" y="27" as="offset" />
          </mxGeometry>
        </mxCell>
        <mxCell id="yZC3clbUCUtn4CxKW6aq-467" value="1..*" style="edgeLabel;resizable=0;html=1;align=left;verticalAlign=bottom;" parent="1" connectable="0" vertex="1">
          <mxGeometry x="-240.00000000000006" y="3120.0020000000004" as="geometry" />
        </mxCell>
        <mxCell id="1T5PfgBi2zAFqyrYh7HE-4" value="Оформляет" style="endArrow=block;endFill=1;html=1;edgeStyle=orthogonalEdgeStyle;align=left;verticalAlign=top;rounded=0;" parent="1" edge="1">
          <mxGeometry x="-0.0992" y="-30" relative="1" as="geometry">
            <mxPoint x="185" y="3020" as="sourcePoint" />
            <mxPoint x="310" y="3170" as="targetPoint" />
            <mxPoint as="offset" />
            <Array as="points">
              <mxPoint x="185" y="3010" />
              <mxPoint x="250" y="3010" />
              <mxPoint x="250" y="3170" />
              <mxPoint x="310" y="3170" />
            </Array>
          </mxGeometry>
        </mxCell>
        <mxCell id="1T5PfgBi2zAFqyrYh7HE-5" value="1" style="edgeLabel;resizable=0;html=1;align=left;verticalAlign=bottom;" parent="1T5PfgBi2zAFqyrYh7HE-4" connectable="0" vertex="1">
          <mxGeometry x="-1" relative="1" as="geometry">
            <mxPoint x="5" y="11" as="offset" />
          </mxGeometry>
        </mxCell>
        <mxCell id="1T5PfgBi2zAFqyrYh7HE-6" value="1..*" style="edgeLabel;resizable=0;html=1;align=left;verticalAlign=bottom;" parent="1" connectable="0" vertex="1">
          <mxGeometry x="282.5" y="3190" as="geometry" />
        </mxCell>
        <mxCell id="1T5PfgBi2zAFqyrYh7HE-7" value="Фамилия" style="ellipse;whiteSpace=wrap;html=1;align=center;" parent="1" vertex="1">
          <mxGeometry x="-740" y="230" width="70" height="40" as="geometry" />
        </mxCell>
        <mxCell id="1T5PfgBi2zAFqyrYh7HE-8" value="Имя" style="ellipse;whiteSpace=wrap;html=1;align=center;" parent="1" vertex="1">
          <mxGeometry x="-770" y="272.5" width="70" height="40" as="geometry" />
        </mxCell>
        <mxCell id="1T5PfgBi2zAFqyrYh7HE-9" value="Отчество" style="ellipse;whiteSpace=wrap;html=1;align=center;" parent="1" vertex="1">
          <mxGeometry x="-770" y="320" width="70" height="40" as="geometry" />
        </mxCell>
        <mxCell id="1T5PfgBi2zAFqyrYh7HE-10" value="Дата рождения" style="ellipse;whiteSpace=wrap;html=1;align=center;" parent="1" vertex="1">
          <mxGeometry x="-780" y="365" width="80" height="43.75" as="geometry" />
        </mxCell>
        <mxCell id="1T5PfgBi2zAFqyrYh7HE-11" value="" style="endArrow=none;html=1;rounded=0;" parent="1" source="1T5PfgBi2zAFqyrYh7HE-8" target="tz4odHqhtknjw58s-V6p-35" edge="1">
          <mxGeometry relative="1" as="geometry">
            <mxPoint x="-637" y="233.75" as="sourcePoint" />
            <mxPoint x="-614" y="173.75" as="targetPoint" />
          </mxGeometry>
        </mxCell>
        <mxCell id="1T5PfgBi2zAFqyrYh7HE-12" value="" style="endArrow=none;html=1;rounded=0;" parent="1" source="1T5PfgBi2zAFqyrYh7HE-9" target="tz4odHqhtknjw58s-V6p-35" edge="1">
          <mxGeometry relative="1" as="geometry">
            <mxPoint x="-698" y="190.75" as="sourcePoint" />
            <mxPoint x="-662" y="172.75" as="targetPoint" />
          </mxGeometry>
        </mxCell>
        <mxCell id="1T5PfgBi2zAFqyrYh7HE-13" value="" style="endArrow=none;html=1;rounded=0;" parent="1" source="1T5PfgBi2zAFqyrYh7HE-10" target="tz4odHqhtknjw58s-V6p-35" edge="1">
          <mxGeometry relative="1" as="geometry">
            <mxPoint x="-706" y="236.75" as="sourcePoint" />
            <mxPoint x="-636" y="173.75" as="targetPoint" />
          </mxGeometry>
        </mxCell>
        <mxCell id="1T5PfgBi2zAFqyrYh7HE-14" value="Должность" style="ellipse;whiteSpace=wrap;html=1;align=center;" parent="1" vertex="1">
          <mxGeometry x="-740" y="416.25" width="80" height="43.75" as="geometry" />
        </mxCell>
        <mxCell id="1T5PfgBi2zAFqyrYh7HE-16" value="" style="endArrow=none;html=1;rounded=0;" parent="1" source="1T5PfgBi2zAFqyrYh7HE-14" target="tz4odHqhtknjw58s-V6p-35" edge="1">
          <mxGeometry relative="1" as="geometry">
            <mxPoint x="-642" y="250.75" as="sourcePoint" />
            <mxPoint x="-614" y="173.75" as="targetPoint" />
          </mxGeometry>
        </mxCell>
        <mxCell id="1T5PfgBi2zAFqyrYh7HE-21" value="" style="fontSize=12;html=1;endArrow=ERone;endFill=1;rounded=0;" parent="1" source="tz4odHqhtknjw58s-V6p-61" target="tz4odHqhtknjw58s-V6p-35" edge="1">
          <mxGeometry width="100" height="100" relative="1" as="geometry">
            <mxPoint x="-360" y="240" as="sourcePoint" />
            <mxPoint x="-550" y="120" as="targetPoint" />
          </mxGeometry>
        </mxCell>
        <mxCell id="1T5PfgBi2zAFqyrYh7HE-24" value="" style="fontSize=12;html=1;endArrow=ERoneToMany;rounded=0;edgeStyle=orthogonalEdgeStyle;entryX=0.75;entryY=1;entryDx=0;entryDy=0;" parent="1" source="tz4odHqhtknjw58s-V6p-49" target="tz4odHqhtknjw58s-V6p-35" edge="1">
          <mxGeometry width="100" height="100" relative="1" as="geometry">
            <mxPoint x="-490" y="380" as="sourcePoint" />
            <mxPoint x="-390" y="280" as="targetPoint" />
          </mxGeometry>
        </mxCell>
        <mxCell id="1T5PfgBi2zAFqyrYh7HE-29" value="" style="edgeStyle=entityRelationEdgeStyle;fontSize=12;html=1;endArrow=ERmany;endFill=0;rounded=0;" parent="1" source="tz4odHqhtknjw58s-V6p-29" target="tz4odHqhtknjw58s-V6p-28" edge="1">
          <mxGeometry width="100" height="100" relative="1" as="geometry">
            <mxPoint x="30" y="350" as="sourcePoint" />
            <mxPoint x="130" y="250" as="targetPoint" />
          </mxGeometry>
        </mxCell>
        <mxCell id="1T5PfgBi2zAFqyrYh7HE-30" value="" style="edgeStyle=entityRelationEdgeStyle;fontSize=12;html=1;endArrow=ERzeroToMany;endFill=1;rounded=0;" parent="1" source="tz4odHqhtknjw58s-V6p-29" target="LvFEWfGlib69xMwCt4WK-71" edge="1">
          <mxGeometry width="100" height="100" relative="1" as="geometry">
            <mxPoint x="100" y="340" as="sourcePoint" />
            <mxPoint x="206" y="216" as="targetPoint" />
          </mxGeometry>
        </mxCell>
        <mxCell id="co4MNZEdPB1LYazbccDm-3" value="" style="fontSize=12;html=1;endArrow=ERone;endFill=0;rounded=0;" parent="1" source="LvFEWfGlib69xMwCt4WK-57" target="LvFEWfGlib69xMwCt4WK-58" edge="1">
          <mxGeometry width="100" height="100" relative="1" as="geometry">
            <mxPoint x="-430" y="660" as="sourcePoint" />
            <mxPoint x="-330" y="560" as="targetPoint" />
          </mxGeometry>
        </mxCell>
        <mxCell id="co4MNZEdPB1LYazbccDm-4" value="" style="fontSize=12;html=1;endArrow=ERoneToMany;rounded=0;" parent="1" source="LvFEWfGlib69xMwCt4WK-57" target="LvFEWfGlib69xMwCt4WK-32" edge="1">
          <mxGeometry width="100" height="100" relative="1" as="geometry">
            <mxPoint x="-430" y="620" as="sourcePoint" />
            <mxPoint x="-330" y="520" as="targetPoint" />
          </mxGeometry>
        </mxCell>
        <mxCell id="nmPZ_Hmt1WB6sJy6o37S-1" value="" style="fontSize=12;html=1;endArrow=ERmany;endFill=0;rounded=0;" parent="1" source="LvFEWfGlib69xMwCt4WK-31" target="LvFEWfGlib69xMwCt4WK-32" edge="1">
          <mxGeometry width="100" height="100" relative="1" as="geometry">
            <mxPoint x="-230" y="650" as="sourcePoint" />
            <mxPoint x="-130" y="550" as="targetPoint" />
          </mxGeometry>
        </mxCell>
        <mxCell id="nmPZ_Hmt1WB6sJy6o37S-2" value="" style="fontSize=12;html=1;endArrow=ERmany;rounded=0;" parent="1" source="LvFEWfGlib69xMwCt4WK-31" target="LvFEWfGlib69xMwCt4WK-24" edge="1">
          <mxGeometry width="100" height="100" relative="1" as="geometry">
            <mxPoint x="-230" y="740" as="sourcePoint" />
            <mxPoint x="-130" y="640" as="targetPoint" />
          </mxGeometry>
        </mxCell>
        <mxCell id="rDEfIx-Ii9A_4PhmDL7N-2" value="Номер телефона" style="ellipse;whiteSpace=wrap;html=1;align=center;" parent="1" vertex="1">
          <mxGeometry x="-123.5" y="361.25" width="85" height="47.5" as="geometry" />
        </mxCell>
        <mxCell id="rDEfIx-Ii9A_4PhmDL7N-3" value="" style="endArrow=none;html=1;rounded=0;" parent="1" source="rDEfIx-Ii9A_4PhmDL7N-2" target="tz4odHqhtknjw58s-V6p-28" edge="1">
          <mxGeometry relative="1" as="geometry">
            <mxPoint x="-211" y="288" as="sourcePoint" />
            <mxPoint x="-192" y="285" as="targetPoint" />
          </mxGeometry>
        </mxCell>
        <mxCell id="tz4odHqhtknjw58s-V6p-1" value="Когда был&lt;div&gt;сделан&lt;/div&gt;" style="ellipse;whiteSpace=wrap;html=1;align=center;" parent="1" vertex="1">
          <mxGeometry x="316.5" y="337.5000000000001" width="90" height="40" as="geometry" />
        </mxCell>
        <mxCell id="rDEfIx-Ii9A_4PhmDL7N-17" value="Содержит" style="shape=rhombus;perimeter=rhombusPerimeter;whiteSpace=wrap;html=1;align=center;" parent="1" vertex="1">
          <mxGeometry x="-12.5" y="530" width="140" height="92.5" as="geometry" />
        </mxCell>
        <mxCell id="rDEfIx-Ii9A_4PhmDL7N-18" value="" style="fontSize=12;html=1;endArrow=ERmany;rounded=0;entryX=0.99;entryY=0.625;entryDx=0;entryDy=0;entryPerimeter=0;" parent="1" source="rDEfIx-Ii9A_4PhmDL7N-17" target="LvFEWfGlib69xMwCt4WK-32" edge="1">
          <mxGeometry width="100" height="100" relative="1" as="geometry">
            <mxPoint x="20" y="480" as="sourcePoint" />
            <mxPoint x="120" y="380" as="targetPoint" />
          </mxGeometry>
        </mxCell>
        <mxCell id="rDEfIx-Ii9A_4PhmDL7N-19" value="" style="fontSize=12;html=1;endArrow=ERone;rounded=0;edgeStyle=orthogonalEdgeStyle;endFill=0;" parent="1" source="rDEfIx-Ii9A_4PhmDL7N-17" target="LvFEWfGlib69xMwCt4WK-71" edge="1">
          <mxGeometry width="100" height="100" relative="1" as="geometry">
            <mxPoint x="282.5" y="542.13" as="sourcePoint" />
            <mxPoint x="212.5" y="542.13" as="targetPoint" />
            <Array as="points">
              <mxPoint x="296" y="500" />
            </Array>
          </mxGeometry>
        </mxCell>
        <mxCell id="rDEfIx-Ii9A_4PhmDL7N-20" value="Содержит" style="endArrow=open;html=1;endSize=12;startArrow=diamondThin;startSize=14;startFill=0;rounded=0;entryX=1.002;entryY=0.805;entryDx=0;entryDy=0;entryPerimeter=0;" parent="1" source="yZC3clbUCUtn4CxKW6aq-284" target="yZC3clbUCUtn4CxKW6aq-398" edge="1">
          <mxGeometry x="0.0093" y="-2" relative="1" as="geometry">
            <mxPoint x="79.5" y="3225" as="sourcePoint" />
            <mxPoint x="-82.5" y="3250" as="targetPoint" />
            <mxPoint as="offset" />
          </mxGeometry>
        </mxCell>
        <mxCell id="rDEfIx-Ii9A_4PhmDL7N-21" value="1" style="edgeLabel;resizable=0;html=1;align=left;verticalAlign=top;" parent="rDEfIx-Ii9A_4PhmDL7N-20" connectable="0" vertex="1">
          <mxGeometry x="-1" relative="1" as="geometry">
            <mxPoint x="-21" y="8" as="offset" />
          </mxGeometry>
        </mxCell>
        <mxCell id="rDEfIx-Ii9A_4PhmDL7N-22" value="1..*" style="edgeLabel;resizable=0;html=1;align=right;verticalAlign=top;" parent="rDEfIx-Ii9A_4PhmDL7N-20" connectable="0" vertex="1">
          <mxGeometry x="1" relative="1" as="geometry">
            <mxPoint x="35" as="offset" />
          </mxGeometry>
        </mxCell>
      </root>
    </mxGraphModel>
  </diagram>
</mxfile>
